<svg width="202" height="212" viewBox="0 0 202 212" fill="none" xmlns="http://www.w3.org/2000/svg">
<path d="M119.295 -0.158936H5.64958C2.57471 -0.158936 0.0820312 2.53053 0.0820312 5.84816V187.041C0.0820312 190.358 2.57471 193.048 5.64958 193.048H119.295C122.37 193.048 124.862 190.358 124.862 187.041V5.84816C124.862 2.53053 122.37 -0.158936 119.295 -0.158936Z" fill="#263238"/>
<path d="M119.294 193.048H119.679C119.839 193.037 119.999 193.015 120.157 192.982C120.379 192.947 120.597 192.896 120.812 192.828C121.419 192.634 121.991 192.334 122.506 191.938C123.219 191.387 123.801 190.663 124.206 189.824C124.457 189.32 124.642 188.781 124.757 188.222C124.846 187.6 124.88 186.969 124.856 186.34C124.856 185.016 124.856 183.562 124.856 181.995C124.856 178.849 124.856 175.222 124.856 171.144C124.856 154.809 124.856 131.184 124.817 101.991C124.817 87.3891 124.817 71.3979 124.817 54.2373C124.817 45.6541 124.817 36.7859 124.817 27.6328C124.817 23.0542 124.817 18.4163 124.817 13.7191V6.59603C124.842 6.00077 124.812 5.40435 124.729 4.81527C124.64 4.23594 124.467 3.67519 124.217 3.15323C123.711 2.1015 122.928 1.2343 121.967 0.660164C121.481 0.389057 120.963 0.189424 120.427 0.0665768C119.881 -0.0274543 119.329 -0.0652178 118.776 -0.0462039H5.66485C4.39366 -0.0525571 3.16077 0.422981 2.18141 1.2974C1.20204 2.17183 0.53841 3.38958 0.306357 4.73811C0.209354 5.41338 0.176175 6.09754 0.207329 6.78005V29.3957C0.207329 40.2465 0.207329 50.931 0.207329 61.4494C0.207329 82.4624 0.207329 102.722 0.207329 122.031C0.207329 141.34 0.207329 159.676 0.207329 176.843V183.224C0.207329 184.28 0.207329 185.331 0.207329 186.376C0.19324 186.891 0.21531 187.407 0.273349 187.919C0.34221 188.423 0.469751 188.916 0.652952 189.385C1.0273 190.314 1.61559 191.124 2.36188 191.738C3.10817 192.352 3.98763 192.749 4.91664 192.893C5.37869 192.949 5.84385 192.969 6.30853 192.953H31.7311L95.8185 192.994L31.7311 193.036H10.4897H6.30853C5.83455 193.052 5.36008 193.031 4.88913 192.97C3.67708 192.792 2.55179 192.193 1.68333 191.263C0.814864 190.334 0.250421 189.124 0.0752935 187.818C0.0122765 187.297 -0.00980968 186.771 0.00927356 186.245C0.00927356 185.2 0.00927356 184.15 0.00927356 183.093V176.831C0.00927356 159.664 0.00927356 141.322 0.00927356 122.019C0.00927356 102.716 0.00927356 82.4505 0.00927356 61.4375C0.00927356 50.939 0.00927356 40.2544 0.00927356 29.3838V6.80379C-0.0186028 6.10333 0.0164047 5.40161 0.113804 4.70843C0.344427 3.30323 1.01665 2.02663 2.01734 1.09348C3.04814 0.187284 4.33522 -0.311222 5.66485 -0.319256H118.699C119.268 -0.338522 119.838 -0.298766 120.399 -0.200538C120.958 -0.0836141 121.498 0.116145 122.006 0.393049C123.008 0.990436 123.824 1.89524 124.35 2.99296C124.615 3.53652 124.801 4.12124 124.9 4.72623C124.984 5.31519 125.015 5.91154 124.993 6.50699V13.63C124.993 18.3312 124.993 22.9691 124.993 27.5437C124.993 36.685 124.993 45.5531 124.993 54.1483C124.993 71.3089 124.993 87.3001 124.993 101.902C124.993 131.095 124.966 154.732 124.955 171.055C124.955 175.133 124.955 178.772 124.955 181.906C124.955 183.473 124.955 184.927 124.955 186.251C124.975 186.885 124.938 187.519 124.845 188.145C124.729 188.707 124.544 189.25 124.294 189.759C123.88 190.601 123.291 191.328 122.573 191.884C122.05 192.279 121.47 192.576 120.856 192.763C120.641 192.831 120.423 192.882 120.201 192.917C120.041 192.946 119.88 192.964 119.717 192.97L119.294 193.048Z" fill="#263238"/>
<path d="M120.465 13.624H3.55176V174.973H120.465V13.624Z" fill="white"/>
<path d="M120.466 174.979C120.466 173.91 120.417 109.411 120.35 13.6241L120.466 13.7487L3.56937 13.7606L3.69591 13.6241C3.69591 73.4576 3.69591 129.011 3.69591 174.979L3.59138 174.866L120.505 174.979L3.56937 175.092H3.46484V174.979C3.46484 129.011 3.46484 73.4754 3.46484 13.6241V13.4875H3.56937H120.472H120.582V13.6063C120.51 109.411 120.466 173.91 120.466 174.979Z" fill="#263238"/>
<path d="M67.2604 183.325C67.2604 184.347 66.9793 185.347 66.4525 186.198C65.9257 187.048 65.177 187.711 64.3011 188.102C63.4252 188.493 62.4614 188.595 61.5317 188.395C60.6021 188.195 59.7482 187.702 59.0783 186.978C58.4084 186.255 57.9524 185.333 57.7682 184.33C57.5839 183.326 57.6796 182.287 58.0431 181.342C58.4066 180.397 59.0217 179.59 59.8104 179.023C60.5991 178.456 61.5261 178.153 62.4741 178.155C63.744 178.156 64.9614 178.702 65.8589 179.671C66.7563 180.64 67.2604 181.955 67.2604 183.325Z" fill="#455A64"/>
<path d="M74.7529 8.13364H49.2643C48.793 8.13364 48.341 7.93164 48.0078 7.57208C47.6745 7.21252 47.4873 6.72485 47.4873 6.21636C47.4873 5.70786 47.6745 5.22019 48.0078 4.86063C48.341 4.50107 48.793 4.29907 49.2643 4.29907H74.7529C75.2242 4.29907 75.6762 4.50107 76.0094 4.86063C76.3427 5.22019 76.5299 5.70786 76.5299 6.21636C76.5299 6.72485 76.3427 7.21252 76.0094 7.57208C75.6762 7.93164 75.2242 8.13364 74.7529 8.13364Z" fill="#455A64"/>
<path d="M119.206 25.9293C119.206 25.9827 93.3927 26.0302 61.5608 26.0302C29.7289 26.0302 3.91016 25.9827 3.91016 25.9293C3.91016 25.8759 29.7179 25.8284 61.5608 25.8284C93.4037 25.8284 119.206 25.8759 119.206 25.9293Z" fill="#263238"/>
<path d="M83.1381 20.5279C83.1381 20.5813 74.3356 20.6288 63.4756 20.6288C52.6156 20.6288 43.8076 20.5813 43.8076 20.5279C43.8076 20.4745 52.6101 20.427 63.4756 20.427C74.3411 20.427 83.1381 20.4745 83.1381 20.5279Z" fill="#455A64"/>
<path d="M9.49385 19.821C9.49385 20.0746 9.42416 20.3224 9.29358 20.5333C9.16301 20.7441 8.97742 20.9085 8.76028 21.0055C8.54314 21.1026 8.3042 21.1279 8.07368 21.0785C7.84317 21.029 7.63144 20.9069 7.46525 20.7276C7.29906 20.5483 7.18587 20.3198 7.14002 20.0711C7.09417 19.8224 7.11771 19.5646 7.20765 19.3303C7.29759 19.096 7.4499 18.8958 7.64532 18.7549C7.84074 18.614 8.07049 18.5388 8.30552 18.5388C8.62069 18.5388 8.92294 18.6739 9.14579 18.9144C9.36865 19.1548 9.49385 19.4809 9.49385 19.821Z" fill="#E0E0E0"/>
<path d="M13.5095 19.821C13.5095 20.0746 13.4398 20.3224 13.3092 20.5333C13.1786 20.7441 12.993 20.9085 12.7759 21.0055C12.5588 21.1026 12.3198 21.1279 12.0893 21.0785C11.8588 21.029 11.6471 20.9069 11.4809 20.7276C11.3147 20.5483 11.2015 20.3198 11.1556 20.0711C11.1098 19.8224 11.1333 19.5646 11.2233 19.3303C11.3132 19.096 11.4655 18.8958 11.6609 18.7549C11.8564 18.614 12.0861 18.5388 12.3211 18.5388C12.6363 18.5388 12.9386 18.6739 13.1614 18.9144C13.3843 19.1548 13.5095 19.4809 13.5095 19.821Z" fill="#E0E0E0"/>
<path d="M17.5261 19.821C17.5261 20.0746 17.4564 20.3224 17.3258 20.5333C17.1952 20.7441 17.0096 20.9085 16.7925 21.0055C16.5754 21.1026 16.3364 21.1279 16.1059 21.0785C15.8754 21.029 15.6637 20.9069 15.4975 20.7276C15.3313 20.5483 15.2181 20.3198 15.1722 20.0711C15.1264 19.8224 15.1499 19.5646 15.2399 19.3303C15.3298 19.096 15.4821 18.8958 15.6775 18.7549C15.873 18.614 16.1027 18.5388 16.3377 18.5388C16.6529 18.5388 16.9552 18.6739 17.178 18.9144C17.4009 19.1548 17.5261 19.4809 17.5261 19.821Z" fill="#E0E0E0"/>
<path d="M47.7682 42.6743H45.1275L44.6268 43.992H43.2734L45.8096 37.8484H47.1135L49.6552 43.992H48.2743L47.7682 42.6743ZM47.3556 41.5939L46.4533 39.2196L45.5511 41.5939H47.3556Z" fill="#455A64"/>
<path d="M53.8742 43.992L52.7739 42.2825H51.558V43.992H50.2432V37.8484H52.7079C54.2263 37.8484 55.178 38.7032 55.178 40.0803C55.194 40.4944 55.0896 40.9035 54.8795 41.2504C54.6694 41.5973 54.3641 41.8648 54.0062 42.0154L55.2826 43.992H53.8742ZM52.6363 39.0118H51.5635V41.1487H52.6363C53.4451 41.1487 53.8522 40.7451 53.8522 40.0803C53.8522 39.4155 53.4451 39.0118 52.6363 39.0118Z" fill="#455A64"/>
<path d="M57.3181 39.0119H55.4971V37.8247H60.4485V39.0119H58.6385V43.9921H57.3181V39.0119Z" fill="#455A64"/>
<path d="M61.1631 37.8484H62.4835V43.992H61.1631V37.8484Z" fill="#455A64"/>
<path d="M63.4746 40.923C63.5127 40.262 63.7298 39.6277 64.0989 39.0985C64.468 38.5694 64.9729 38.1688 65.551 37.9464C66.1292 37.7239 66.7551 37.6894 67.3512 37.8471C67.9473 38.0048 68.4874 38.3478 68.9046 38.8336L68.0574 39.6764C67.8839 39.449 67.6653 39.2664 67.4178 39.1421C67.1702 39.0178 66.9 38.955 66.627 38.9582C66.144 38.9582 65.6808 39.1652 65.3393 39.5337C64.9978 39.9021 64.806 40.4019 64.806 40.923C64.806 41.4441 64.9978 41.9438 65.3393 42.3123C65.6808 42.6807 66.144 42.8878 66.627 42.8878C66.901 42.89 67.1719 42.8255 67.4195 42.6991C67.6672 42.5727 67.8852 42.3876 68.0574 42.1576L68.9046 43.0005C68.4903 43.4913 67.951 43.8392 67.3543 44.0006C66.7575 44.162 66.1298 44.1298 65.55 43.9079C64.9701 43.6861 64.4639 43.2845 64.0947 42.7535C63.7255 42.2225 63.5098 41.5857 63.4746 40.923Z" fill="#455A64"/>
<path d="M69.791 37.8484H71.1059V42.8345H73.9887V44.0217H69.8185L69.791 37.8484Z" fill="#455A64"/>
<path d="M79.1043 42.8523V43.992H74.7031V37.8484H79.0053V38.994H76.0125V40.3236H78.6532V41.4574H76.0125V42.882L79.1043 42.8523Z" fill="#455A64"/>
<path d="M40.4623 41.4576C40.4623 41.511 34.3611 41.5585 26.835 41.5585C19.3089 41.5585 13.2021 41.511 13.2021 41.4576C13.2021 41.4042 19.3034 41.3567 26.835 41.3567C34.3666 41.3567 40.4623 41.416 40.4623 41.4576Z" fill="#263238"/>
<path d="M112.95 41.4576C112.95 41.511 106.541 41.5585 98.6458 41.5585C90.7511 41.5585 84.3418 41.511 84.3418 41.4576C84.3418 41.4042 90.7456 41.3567 98.6458 41.3567C106.546 41.3567 112.95 41.416 112.95 41.4576Z" fill="#263238"/>
<path d="M60.8118 59.396C60.8118 59.491 50.1058 59.5622 36.9021 59.5622C23.6984 59.5622 12.9814 59.491 12.9814 59.396C12.9814 59.301 23.6874 59.2239 36.9021 59.2239C50.1168 59.2239 60.8118 59.301 60.8118 59.396Z" fill="#263238"/>
<path d="M77.1677 58.8853C77.1677 58.9802 74.2629 59.0515 70.6869 59.0515C67.1109 59.0515 64.2061 58.9802 64.2061 58.8853C64.2061 58.7903 67.1054 58.7131 70.6869 58.7131C74.2684 58.7131 77.1677 58.7903 77.1677 58.8853Z" fill="#263238"/>
<path d="M108.879 58.5882C108.879 58.6772 102.888 58.7544 95.5051 58.7544C88.122 58.7544 82.1309 58.6772 82.1309 58.5882C82.1309 58.4991 88.1165 58.416 95.5051 58.416C102.894 58.416 108.879 58.4932 108.879 58.5882Z" fill="#263238"/>
<path d="M108.605 64.5358C108.605 64.6308 87.1218 64.708 60.6264 64.708C34.131 64.708 12.6475 64.6308 12.6475 64.5358C12.6475 64.4409 34.1035 64.3696 60.6264 64.3696C87.1493 64.3696 108.605 64.4409 108.605 64.5358Z" fill="#263238"/>
<path d="M57.3138 70.7864C57.3138 70.8754 47.378 70.9526 35.1206 70.9526C22.8632 70.9526 12.9219 70.8754 12.9219 70.7864C12.9219 70.6974 22.8577 70.6143 35.1206 70.6143C47.3835 70.6143 57.3138 70.6914 57.3138 70.7864Z" fill="#263238"/>
<path d="M73.5799 70.787C73.5799 70.876 70.8622 70.9532 67.5283 70.9532C64.1943 70.9532 61.4766 70.876 61.4766 70.787C63.4896 70.6158 65.5096 70.5583 67.5283 70.6149C69.5469 70.5582 71.5669 70.6156 73.5799 70.787Z" fill="#263238"/>
<path d="M108.603 70.187C108.603 70.2819 101.627 70.3591 93.0227 70.3591C84.4183 70.3591 77.4424 70.2819 77.4424 70.187C77.4424 70.092 84.4183 70.0208 93.0227 70.0208C101.627 70.0208 108.603 70.0979 108.603 70.187Z" fill="#263238"/>
<path d="M60.2353 124.316C60.2353 124.411 49.5238 124.488 36.3201 124.488C23.1164 124.488 12.3994 124.411 12.3994 124.316C12.3994 124.221 23.1054 124.15 36.3201 124.15C49.5348 124.15 60.2353 124.227 60.2353 124.316Z" fill="#263238"/>
<path d="M76.5651 123.806C76.5651 123.901 73.6658 123.978 70.0843 123.978C66.5028 123.978 63.6035 123.901 63.6035 123.806C63.6035 123.711 66.5083 123.639 70.0843 123.639C73.6603 123.639 76.5651 123.717 76.5651 123.806Z" fill="#263238"/>
<path d="M108.274 123.509C108.274 123.604 102.283 123.681 94.8996 123.681C87.5166 123.681 81.5254 123.604 81.5254 123.509C81.5254 123.414 87.5111 123.372 94.8941 123.372C102.277 123.372 108.274 123.414 108.274 123.509Z" fill="#263238"/>
<path d="M107.999 129.462C107.999 129.551 86.5153 129.629 60.0199 129.629C33.5245 129.629 12.041 129.551 12.041 129.462C12.041 129.373 33.497 129.29 60.0199 129.29C86.5428 129.29 107.999 129.367 107.999 129.462Z" fill="#263238"/>
<path d="M56.7083 135.707C56.7083 135.802 46.7725 135.879 34.5151 135.879C22.2577 135.879 12.3164 135.802 12.3164 135.707C12.3164 135.612 22.2522 135.541 34.5151 135.541C46.778 135.541 56.7083 135.612 56.7083 135.707Z" fill="#263238"/>
<path d="M72.9764 135.707C70.9634 135.879 68.9434 135.936 66.9247 135.879C64.9061 135.936 62.8861 135.878 60.873 135.707C62.8863 135.54 64.9062 135.484 66.9247 135.541C68.9433 135.484 70.9632 135.539 72.9764 135.707Z" fill="#263238"/>
<path d="M108.001 135.114C108.001 135.209 101.025 135.28 92.4202 135.28C83.8158 135.28 76.8398 135.209 76.8398 135.114C76.8398 135.019 83.8158 134.942 92.4202 134.942C101.025 134.942 108.001 135.019 108.001 135.114Z" fill="#263238"/>
<path d="M71.31 77.3989H12.5811V117.852H71.31V77.3989Z" fill="#9D0EE0"/>
<path d="M68.7781 114.635C68.7781 114.635 68.7781 114.415 68.7781 114V112.177C68.7781 110.575 68.7781 108.23 68.7781 105.226C68.7781 99.2194 68.7396 90.5708 68.7121 79.9812L68.8331 80.1118L15.6168 80.1474L15.7708 79.9812C15.7708 92.2566 15.7708 103.968 15.7708 114.635L15.6278 114.475L53.902 114.552L64.905 114.593H67.8319H68.5911H68.8551H68.6131H67.8704H64.9656L54.0065 114.635L15.6388 114.712H15.4902V114.558C15.4902 103.873 15.4902 92.1795 15.4902 79.9041V79.7319H15.6498L68.8661 79.7735H68.9927V79.9041C68.9927 90.5293 68.9487 99.2016 68.9322 105.232C68.9322 108.2 68.9322 110.575 68.8992 112.154V113.934C68.7891 114.433 68.7781 114.635 68.7781 114.635Z" fill="#263238"/>
<g opacity="0.2">
<path d="M16.998 114.635L32.3913 93.2241L43.521 106.936L52.0318 98.6673L67.5187 114.635H16.998Z" fill="black"/>
</g>
<g opacity="0.2">
<path d="M46.9597 90.6776C46.9597 91.4105 46.7582 92.1268 46.3807 92.7361C46.0033 93.3453 45.4668 93.8201 44.8392 94.1002C44.2116 94.3804 43.521 94.4534 42.8549 94.31C42.1889 94.1666 41.5772 93.8132 41.0973 93.2946C40.6174 92.776 40.2909 92.1155 40.159 91.3966C40.0272 90.6777 40.096 89.9328 40.3567 89.2561C40.6173 88.5793 41.0582 88.0013 41.6235 87.595C42.1887 87.1887 42.853 86.9725 43.5322 86.9736C43.9828 86.9736 44.4289 87.0695 44.8451 87.2557C45.2613 87.4419 45.6394 87.7148 45.9577 88.0589C46.2761 88.4029 46.5284 88.8113 46.7003 89.2606C46.8723 89.71 46.9604 90.1915 46.9597 90.6776Z" fill="black"/>
</g>
<path d="M108.602 77.0727C108.602 77.1677 101.23 77.2448 92.1364 77.2448C83.0423 77.2448 75.6758 77.1677 75.6758 77.0727C75.6758 76.9777 83.0423 76.9065 92.1364 76.9065C101.23 76.9065 108.602 76.948 108.602 77.0727Z" fill="#263238"/>
<path d="M108.602 83.3408C108.602 83.4358 101.23 83.507 92.1364 83.507C83.0423 83.507 75.6758 83.4358 75.6758 83.3408C75.6758 83.2459 83.0423 83.1687 92.1364 83.1687C101.23 83.1687 108.602 83.2459 108.602 83.3408Z" fill="#263238"/>
<path d="M107.422 110.741C107.422 110.836 100.05 110.913 90.9612 110.913C81.8727 110.913 74.4951 110.836 74.4951 110.741C74.4951 110.646 81.8672 110.575 90.9612 110.575C100.055 110.575 107.422 110.652 107.422 110.741Z" fill="#263238"/>
<path d="M107.422 117.852C107.422 117.941 100.05 118.018 90.9612 118.018C81.8727 118.018 74.4951 117.941 74.4951 117.852C74.4951 117.763 81.8672 117.68 90.9612 117.68C100.055 117.68 107.422 117.757 107.422 117.852Z" fill="#263238"/>
<path d="M97.847 89.6389C97.847 89.728 92.8956 89.8051 86.7614 89.8051C80.6272 89.8051 75.6758 89.728 75.6758 89.6389C75.6758 89.5499 80.6272 89.4668 86.7614 89.4668C92.8956 89.4668 97.847 89.538 97.847 89.6389Z" fill="#263238"/>
<path d="M108.846 89.538C107.473 89.7098 106.09 89.7673 104.708 89.7102C103.327 89.7672 101.944 89.7096 100.571 89.538C101.945 89.3739 103.327 89.3184 104.708 89.3718C106.089 89.3182 107.472 89.3737 108.846 89.538Z" fill="#263238"/>
<path d="M108.847 96.5425C108.847 96.6375 103.895 96.7087 97.8053 96.7087C91.7151 96.7087 86.7637 96.6375 86.7637 96.5425C86.7637 96.4475 91.7151 96.3704 97.8053 96.3704C103.895 96.3704 108.847 96.4475 108.847 96.5425Z" fill="#263238"/>
<path d="M97.847 103.594C97.847 103.689 92.8956 103.76 86.7614 103.76C80.6272 103.76 75.6758 103.689 75.6758 103.594C75.6758 103.499 80.6272 103.422 86.7614 103.422C92.8956 103.422 97.847 103.499 97.847 103.594Z" fill="#263238"/>
<path d="M108.846 103.523C107.472 103.687 106.089 103.743 104.708 103.689C103.327 103.742 101.945 103.687 100.571 103.523C101.944 103.351 103.327 103.294 104.708 103.351C106.09 103.294 107.473 103.351 108.846 103.523Z" fill="#263238"/>
<path d="M82.3789 96.382C81.3705 96.5459 80.3496 96.6016 79.331 96.5483C78.3125 96.6016 77.2916 96.5459 76.2832 96.382C77.2909 96.2107 78.3123 96.153 79.331 96.2099C80.3498 96.153 81.3712 96.2107 82.3789 96.382Z" fill="#263238"/>
<path d="M53.9789 162.282C54.0738 162.267 54.1692 162.257 54.265 162.252L54.6226 162.223L55.1068 162.14C56.1783 161.917 57.182 161.411 58.0281 160.667C58.6874 160.075 59.2307 159.347 59.6265 158.525C60.0223 157.704 60.2625 156.806 60.3332 155.883C60.3662 155.349 60.3332 154.785 60.3332 154.203C60.3332 153.912 60.3332 153.61 60.3332 153.319C60.3332 153.17 60.3332 153.022 60.3332 152.868L60.2727 152.423C60.2275 152.117 60.1631 151.816 60.0801 151.52C59.9854 151.219 59.8752 150.924 59.75 150.636C59.4918 150.036 59.1505 149.481 58.7378 148.992C57.8586 147.931 56.6953 147.193 55.4093 146.878C54.7214 146.73 54.0195 146.673 53.3188 146.706H51.1181H41.562H19.6659C18.2565 146.705 16.8874 147.213 15.7766 148.149C14.6659 149.085 13.8775 150.395 13.5371 151.87C13.355 152.837 13.2885 153.824 13.3391 154.809C13.3024 155.771 13.4368 156.732 13.7352 157.64C14.0377 158.525 14.5059 159.333 15.1106 160.014C15.6946 160.676 16.397 161.204 17.1751 161.565C17.9533 161.926 18.7912 162.114 19.6384 162.116L37.5238 162.151L49.5777 162.199L52.8786 162.229H49.5777L37.5238 162.276L19.6384 162.312C18.7553 162.31 17.8816 162.117 17.0696 161.742C16.2576 161.368 15.5239 160.821 14.9125 160.133C14.2948 159.465 13.805 158.673 13.4711 157.8C13.1592 156.861 13.0172 155.865 13.053 154.868C13.001 153.86 13.0694 152.848 13.2566 151.859C13.6125 150.316 14.4362 148.947 15.5966 147.968C16.757 146.99 18.1874 146.458 19.6604 146.457H41.5565H51.1126H53.3133C54.0311 146.427 54.7496 146.491 55.4534 146.647C56.7825 146.977 57.9828 147.747 58.8863 148.849C59.3065 149.357 59.655 149.929 59.9206 150.547C60.0491 150.843 60.1594 151.149 60.2507 151.461C60.3317 151.766 60.3978 152.075 60.4487 152.387C60.4487 152.541 60.4873 152.696 60.5093 152.85V153.313C60.5093 153.616 60.5093 153.906 60.5093 154.203C60.5093 154.797 60.5093 155.343 60.4763 155.901C60.4006 156.843 60.1491 157.759 59.7369 158.593C59.3247 159.428 58.7602 160.164 58.0776 160.756C57.2182 161.508 56.1925 162.005 55.1012 162.199L54.6116 162.27H54.2485L53.9789 162.282Z" fill="#263238"/>
<path d="M106.849 146.249H72.5141C68.944 146.249 66.0498 149.372 66.0498 153.224V154.975C66.0498 158.827 68.944 161.949 72.5141 161.949H106.849C110.419 161.949 113.314 158.827 113.314 154.975V153.224C113.314 149.372 110.419 146.249 106.849 146.249Z" fill="#9D0EE0"/>
<path d="M83.2207 155.883L83.5343 155.135C83.9184 155.425 84.375 155.583 84.8437 155.587C85.3938 155.587 85.6139 155.391 85.6139 155.124C85.6139 154.322 83.3032 154.874 83.3032 153.277C83.3032 152.553 83.8534 151.942 84.9537 151.942C85.4373 151.932 85.9144 152.063 86.3346 152.322L86.0925 153.052C85.7579 152.842 85.3792 152.728 84.9922 152.72C84.442 152.72 84.2385 152.939 84.2385 153.206C84.2385 153.996 86.5491 153.456 86.5491 155.029C86.5491 155.747 85.999 156.358 84.8602 156.358C84.2814 156.386 83.7089 156.22 83.2207 155.883Z" fill="white"/>
<path d="M90.8067 152.019V156.311H89.8879V154.53H88.0779V156.311H87.1592V152.019H88.0779V153.711H89.8879V152.019H90.8067Z" fill="white"/>
<path d="M94.3445 155.391H92.5015L92.1494 156.311H91.2031L92.9746 152.019H93.8879L95.6649 156.311H94.6966L94.3445 155.391ZM94.0584 154.637L93.4257 152.993L92.7931 154.637H94.0584Z" fill="white"/>
<path d="M98.6358 156.311L97.8711 155.123H97.0239V156.311H96.0996V152.019H97.8216C98.8834 152.019 99.5491 152.613 99.5491 153.574C99.5617 153.863 99.4899 154.15 99.3438 154.392C99.1978 154.635 98.9848 154.822 98.7349 154.928L99.6261 156.311H98.6358ZM97.7721 152.826H97.0239V154.322H97.7721C98.3222 154.322 98.6193 154.043 98.6193 153.574C98.6193 153.105 98.3332 152.826 97.7721 152.826Z" fill="white"/>
<path d="M103.355 155.509V156.311H100.274V152.019H103.284V152.814H101.193V153.746H103.036V154.518H101.193V155.509H103.355Z" fill="white"/>
<path d="M80.8094 156.614H76.5622C76.4892 156.614 76.4193 156.582 76.3677 156.527C76.3161 156.471 76.2871 156.396 76.2871 156.317V152.827C76.2871 152.748 76.3161 152.672 76.3677 152.617C76.4193 152.561 76.4892 152.53 76.5622 152.53H77.503C77.5759 152.53 77.6459 152.561 77.6975 152.617C77.7491 152.672 77.778 152.748 77.778 152.827C77.778 152.905 77.7491 152.981 77.6975 153.036C77.6459 153.092 77.5759 153.123 77.503 153.123H76.8373V156.02H80.5343V153.123H79.8521C79.7792 153.123 79.7092 153.092 79.6576 153.036C79.606 152.981 79.577 152.905 79.577 152.827C79.577 152.748 79.606 152.672 79.6576 152.617C79.7092 152.561 79.7792 152.53 79.8521 152.53H80.8094C80.8823 152.53 80.9523 152.561 81.0039 152.617C81.0555 152.672 81.0845 152.748 81.0845 152.827V156.317C81.083 156.395 81.0536 156.47 81.0023 156.525C80.951 156.58 80.8819 156.612 80.8094 156.614Z" fill="white"/>
<path d="M78.6872 155.177C78.6142 155.177 78.5443 155.145 78.4927 155.09C78.4411 155.034 78.4121 154.959 78.4121 154.88V150.606C78.4121 150.527 78.4411 150.452 78.4927 150.396C78.5443 150.341 78.6142 150.309 78.6872 150.309C78.7601 150.309 78.8301 150.341 78.8817 150.396C78.9333 150.452 78.9623 150.527 78.9623 150.606V154.88C78.9623 154.959 78.9333 155.034 78.8817 155.09C78.8301 155.145 78.7601 155.177 78.6872 155.177Z" fill="white"/>
<path d="M79.4897 152.049C79.4482 152.049 79.4072 152.039 79.3699 152.02C79.3326 152 79.3002 151.971 79.2751 151.936L78.6589 151.075L77.9658 151.948C77.9171 152.007 77.849 152.043 77.776 152.048C77.7031 152.054 77.631 152.028 77.5751 151.977C77.5476 151.952 77.5251 151.922 77.5088 151.887C77.4925 151.852 77.4827 151.815 77.4802 151.776C77.4776 151.737 77.4823 151.698 77.4938 151.661C77.5054 151.625 77.5237 151.591 77.5476 151.562L78.4609 150.41C78.488 150.378 78.5212 150.352 78.5582 150.335C78.5951 150.318 78.6351 150.309 78.6754 150.309C78.7161 150.309 78.7561 150.319 78.7925 150.339C78.8288 150.358 78.8603 150.387 78.8845 150.422L79.7097 151.574C79.7427 151.617 79.7633 151.67 79.7691 151.726C79.7749 151.781 79.7656 151.838 79.7423 151.888C79.719 151.938 79.6828 151.98 79.638 152.009C79.5932 152.037 79.5416 152.051 79.4897 152.049Z" fill="white"/>
<path d="M25.9824 154.109C26.0058 153.692 26.1422 153.291 26.3746 152.957C26.6071 152.623 26.9254 152.371 27.29 152.23C27.6545 152.09 28.0493 152.068 28.4252 152.168C28.8012 152.267 29.1416 152.484 29.4044 152.791L28.8542 153.325C28.745 153.182 28.6071 153.066 28.4509 152.988C28.2947 152.91 28.1241 152.871 27.952 152.874C27.7947 152.862 27.6368 152.886 27.4882 152.942C27.3395 152.999 27.2033 153.088 27.088 153.205C26.9727 153.321 26.8808 153.461 26.818 153.617C26.7551 153.773 26.7227 153.941 26.7227 154.112C26.7227 154.282 26.7551 154.45 26.818 154.606C26.8808 154.762 26.9727 154.903 27.088 155.019C27.2033 155.135 27.3395 155.224 27.4882 155.281C27.6368 155.338 27.7947 155.361 27.952 155.349C28.1247 155.352 28.2958 155.313 28.4522 155.233C28.6085 155.154 28.7461 155.038 28.8542 154.892L29.4044 155.42C29.1431 155.73 28.803 155.949 28.4268 156.05C28.0505 156.152 27.6549 156.131 27.2894 155.991C26.924 155.851 26.605 155.598 26.3725 155.263C26.14 154.928 26.0043 154.526 25.9824 154.109Z" fill="#263238"/>
<path d="M32.26 155.218H30.6096L30.2905 156.049H29.4268L31.0277 152.173H31.8474L33.4539 156.049H32.5791L32.26 155.218ZM31.996 154.536L31.4458 153.052L30.8957 154.536H31.996Z" fill="#263238"/>
<path d="M37.1281 152.173V156.049H36.4459L34.6524 153.675V156.049H33.8271V152.173H34.5148L36.2973 154.547V152.173H37.1281Z" fill="#263238"/>
<path d="M37.7393 154.109C37.764 153.692 37.9015 153.292 38.1346 152.958C38.3677 152.625 38.6863 152.373 39.051 152.232C39.4156 152.092 39.8103 152.07 40.1864 152.17C40.5624 152.269 40.9032 152.485 41.1667 152.791L40.6166 153.325C40.5065 153.182 40.3685 153.068 40.2125 152.99C40.0564 152.912 39.8863 152.872 39.7143 152.874C39.557 152.862 39.3991 152.885 39.2505 152.942C39.1019 152.999 38.9657 153.088 38.8504 153.205C38.7351 153.321 38.6432 153.461 38.5803 153.617C38.5174 153.773 38.485 153.941 38.485 154.112C38.485 154.282 38.5174 154.45 38.5803 154.606C38.6432 154.762 38.7351 154.903 38.8504 155.019C38.9657 155.135 39.1019 155.224 39.2505 155.281C39.3991 155.338 39.557 155.361 39.7143 155.349C39.8868 155.351 40.0575 155.311 40.2137 155.232C40.3699 155.152 40.5076 155.036 40.6166 154.892L41.1667 155.42C40.9047 155.729 40.5642 155.947 40.1879 156.048C39.8116 156.149 39.4159 156.129 39.0504 155.989C38.6849 155.849 38.3657 155.596 38.1325 155.262C37.8993 154.927 37.7626 154.526 37.7393 154.109Z" fill="#263238"/>
<path d="M44.5047 155.331V156.049H41.7539V152.173H44.4662V152.891H42.5791V153.734H44.2296V154.429H42.5791V155.331H44.5047Z" fill="#263238"/>
<path d="M45.165 152.173H45.9958V155.319H47.8003V156.049H45.165V152.173Z" fill="#263238"/>
<path d="M107.3 156.667L108.67 165.422L110.518 164.045L112.576 166.888L114.782 165.179L112.741 162.395L114.496 160.917L107.3 156.667Z" fill="#263238"/>
<path d="M157.486 158.729H151.47V201.004H157.486V158.729Z" fill="#455A64"/>
<path d="M192.399 158.729H186.382V201.004H192.399V158.729Z" fill="#455A64"/>
<path d="M187.449 173.745H155.545V179.501H187.449V173.745Z" fill="#455A64"/>
<path d="M192.399 158.708C192.405 158.78 192.405 158.852 192.399 158.923C192.399 159.076 192.399 159.286 192.399 159.554C192.399 160.121 192.399 160.94 192.423 161.985C192.423 164.118 192.448 167.18 192.462 170.977C192.462 178.603 192.487 189.171 192.501 200.983V201.12H186.256V200.983C186.3 189.25 186.339 178.771 186.363 171.214C186.392 167.448 186.412 164.386 186.426 162.285C186.426 161.234 186.426 160.436 186.451 159.874C186.451 159.606 186.451 159.401 186.451 159.249C186.444 159.177 186.444 159.105 186.451 159.034C186.455 159.105 186.455 159.177 186.451 159.249C186.451 159.401 186.451 159.606 186.451 159.874C186.451 160.436 186.451 161.245 186.451 162.285C186.451 164.386 186.451 167.427 186.451 171.214C186.451 178.771 186.451 189.25 186.421 200.983L186.295 200.846H192.312L192.185 200.983C192.185 189.171 192.214 178.603 192.224 170.977C192.224 167.18 192.258 164.118 192.263 161.985C192.263 160.935 192.263 160.121 192.287 159.554C192.287 159.287 192.287 159.077 192.287 158.923C192.316 158.847 192.353 158.774 192.399 158.708Z" fill="#263238"/>
<path d="M151.538 160.52C151.543 160.588 151.543 160.656 151.538 160.725V161.329C151.538 161.854 151.538 162.647 151.538 163.65C151.538 165.683 151.538 168.608 151.538 172.237C151.538 179.533 151.538 189.649 151.538 201.004L151.412 200.867H157.429L157.302 201.004C157.302 189.281 157.331 178.776 157.341 171.187C157.341 167.405 157.37 164.359 157.38 162.232C157.38 161.182 157.38 160.378 157.404 159.811V159.18C157.397 159.109 157.397 159.037 157.404 158.965C157.411 159.037 157.411 159.109 157.404 159.18C157.404 159.333 157.404 159.543 157.404 159.811C157.404 160.378 157.404 161.192 157.404 162.232C157.404 164.333 157.429 167.405 157.443 171.187C157.443 178.776 157.443 189.281 157.482 201.004V201.14H151.344V201.004C151.378 189.649 151.412 179.533 151.431 172.237C151.456 168.608 151.47 165.683 151.485 163.65C151.485 162.647 151.485 161.87 151.485 161.329C151.485 161.071 151.485 160.872 151.485 160.725C151.496 160.654 151.514 160.586 151.538 160.52Z" fill="#263238"/>
<path d="M197.156 139.19H147.557C145.075 139.19 143.063 141.361 143.063 144.038V154.317C143.063 156.994 145.075 159.165 147.557 159.165H197.156C199.637 159.165 201.649 156.994 201.649 154.317V144.038C201.649 141.361 199.637 139.19 197.156 139.19Z" fill="#455A64"/>
<path d="M153.646 159.165C153.646 159.091 163.381 159.028 175.356 159.028C187.331 159.028 197.072 159.091 197.072 159.165C197.072 159.238 187.336 159.301 175.356 159.301C163.376 159.301 153.646 159.233 153.646 159.165Z" fill="#263238"/>
<path d="M187.127 43.5637C186.932 41.8567 186.241 33.5372 186.071 32.2767C185.871 30.5498 185.081 28.9654 183.856 27.8333C182.624 26.7461 180.784 26.368 179.397 27.2188C178.941 27.3794 178.532 27.6669 178.211 28.0524C177.891 28.4378 177.67 28.9075 177.571 29.4143C175.064 42.1089 176.369 55.3497 175.717 68.3699C180.005 68.8163 185.696 68.1178 189.97 67.5768C189.347 57.2562 188.373 54.6406 187.127 43.5637Z" fill="#263238"/>
<path d="M186.382 61.2687C186.352 61.1612 186.334 61.0501 186.329 60.9378C186.304 60.6857 186.27 60.3706 186.231 59.9819C186.153 59.11 186.051 57.923 185.92 56.4734C185.686 53.4692 185.365 49.3882 185.005 44.8818C184.839 42.6181 184.678 40.4647 184.518 38.5004C184.445 37.5182 184.381 36.5886 184.318 35.7114C184.284 34.907 184.185 34.1073 184.021 33.3217C183.921 32.7541 183.706 32.2174 183.391 31.7499C183.076 31.2823 182.67 30.8955 182.201 30.6168C181.843 30.4372 181.456 30.3389 181.062 30.3279C181.062 30.3279 181.086 30.3279 181.139 30.3279C181.217 30.3184 181.295 30.3184 181.373 30.3279C181.674 30.3333 181.971 30.4066 182.244 30.5433C182.682 30.7575 183.069 31.0773 183.374 31.4782C183.774 32.0113 184.06 32.6338 184.211 33.3007C184.392 34.0949 184.504 34.9054 184.547 35.7219C184.62 36.5991 184.693 37.5287 184.771 38.5056C184.922 40.4752 185.092 42.6286 185.258 44.887C185.584 49.3987 185.876 53.4797 186.095 56.4892C186.187 57.9388 186.26 59.1153 186.314 60.0029C186.314 60.3916 186.348 60.712 186.363 60.9641C186.378 61.0647 186.385 61.1667 186.382 61.2687Z" fill="#455A64"/>
<path d="M182.245 56.8149C182.187 56.5709 182.154 56.3208 182.147 56.0691C182.103 55.5859 182.055 54.8874 182.001 54.0208C181.894 52.2928 181.787 49.903 181.69 47.2612C181.592 44.6193 181.524 42.2873 181.466 40.4963C181.441 39.677 181.422 38.989 181.407 38.4427C181.381 38.1932 181.381 37.9412 181.407 37.6917C181.465 37.9357 181.498 38.1858 181.505 38.4375C181.549 38.9207 181.597 39.6192 181.651 40.4858C181.758 42.2138 181.865 44.6036 181.962 47.2454C182.06 49.8873 182.128 52.2193 182.186 54.0103C182.211 54.8296 182.23 55.5177 182.25 56.0639C182.273 56.3137 182.271 56.5655 182.245 56.8149Z" fill="#455A64"/>
<path d="M152.331 61.4687L160.83 58.4119L174.008 57.9287L185.082 61.6053L190.773 73.8849L186.499 99.8256L194.321 116.533L173.37 120.777L155.067 111.617L153.504 110.341L150.394 66.1432L152.331 61.4687Z" fill="#9D0EE0"/>
<path d="M124.433 151.607L112.784 172.048L121.999 179.538L136.515 160.388L124.433 151.607Z" fill="#FFBE9D"/>
<path d="M141.905 166.597L133.152 196.114H143.365L154.776 170.809L141.905 166.597Z" fill="#FFBE9D"/>
<path d="M152.35 61.4688C152.35 61.4688 145.608 64.4888 144.902 72.5404C144.629 75.6497 142.599 90.2088 142.599 90.2088L133.058 88.9851L130.756 97.1943C130.756 97.1943 141.421 103.192 144.712 103.97C150.398 105.314 153.148 101.869 153.148 101.869L152.35 61.4688Z" fill="#9D0EE0"/>
<path d="M150.531 71.2849C150.539 71.4196 150.539 71.5547 150.531 71.6893C150.531 71.973 150.531 72.3564 150.497 72.8291C150.463 73.3018 150.458 73.932 150.463 74.6358C150.468 75.3396 150.463 76.1432 150.487 77.0308C150.511 77.9185 150.531 78.8849 150.599 79.9248C150.667 80.9647 150.74 82.0782 150.823 83.2442C151.022 85.5814 151.31 88.1445 151.616 90.8284C152.278 96.1961 152.906 101.06 153.198 104.6C153.281 105.487 153.335 106.286 153.379 106.989C153.422 107.693 153.461 108.302 153.471 108.796C153.481 109.29 153.5 109.652 153.51 109.941C153.524 110.074 153.524 110.208 153.51 110.34C153.486 110.21 153.472 110.079 153.466 109.946C153.466 109.658 153.417 109.279 153.383 108.807C153.349 108.334 153.31 107.704 153.247 107.005C153.184 106.307 153.125 105.503 153.028 104.621C152.692 101.091 152.054 96.2171 151.373 90.8651C151.052 88.176 150.789 85.6129 150.599 83.2652C150.521 82.094 150.433 80.9805 150.399 79.9406C150.365 78.9006 150.321 77.9237 150.317 77.0308C150.312 76.138 150.317 75.3396 150.317 74.6358C150.317 73.932 150.356 73.3175 150.395 72.8238C150.433 72.3301 150.453 71.9729 150.472 71.6841C150.481 71.5494 150.5 71.4158 150.531 71.2849Z" fill="#263238"/>
<path d="M132.606 72.8236C132.606 72.8236 135.527 69.7826 136.622 70.1502C137.378 70.4412 138.073 70.8911 138.667 71.4738C138.667 71.4738 139.777 70.7647 140.376 71.4738C140.841 72.089 141.241 72.7584 141.568 73.4696C141.568 73.4696 142.629 73.3016 143.447 74.7722C144.265 76.2428 146.285 81.2009 147.045 82.0307C147.822 82.8257 148.763 83.4106 149.79 83.7377C150.876 84.1474 159.935 87.4563 159.935 87.4563L156.6 96.427C156.6 96.427 143.277 88.0235 142.766 87.4668C142.255 86.91 138.243 84.0581 137.645 82.3091C137.046 80.5601 132.606 75.1976 132.606 75.1976V72.8236Z" fill="#FFBE9D"/>
<path d="M141.423 76.3797C141.397 76.5064 141.342 76.624 141.262 76.721C141.069 77.0179 140.802 77.2507 140.493 77.3933L140.542 77.2988C140.626 77.9875 140.479 78.686 140.128 79.2684C140.025 79.4462 139.9 79.6086 139.758 79.7516C139.603 79.9211 139.398 80.0286 139.179 80.0562C139.054 80.0639 138.93 80.0328 138.822 79.9667C138.713 79.9006 138.624 79.8022 138.566 79.6833C138.461 79.4677 138.397 79.2322 138.376 78.99C138.273 78.1707 138.176 77.4143 138.103 76.6843C138.077 76.5009 138.085 76.3137 138.126 76.1335C138.166 75.9532 138.24 75.7835 138.342 75.6338C138.535 75.4079 138.771 75.2289 139.033 75.1086C139.397 74.9569 139.745 74.7669 140.075 74.5414C140.294 74.3733 140.381 74.2315 140.401 74.242C140.42 74.2525 140.352 74.4153 140.138 74.6254C139.823 74.8905 139.478 75.1111 139.111 75.2819C138.877 75.4092 138.672 75.5882 138.507 75.8072C138.347 76.0646 138.284 76.3785 138.332 76.6843C138.424 77.3986 138.522 78.1654 138.624 78.9742C138.668 79.4049 138.833 79.8461 139.159 79.8146C139.323 79.7654 139.477 79.6816 139.61 79.568C139.744 79.4544 139.856 79.3133 139.938 79.1528C140.27 78.6194 140.426 77.9813 140.381 77.3408V77.2725H140.44C140.733 77.1526 140.995 76.958 141.204 76.7053C141.345 76.4847 141.408 76.3692 141.423 76.3797Z" fill="#EB996E"/>
<path d="M142.265 79.0474C142.265 79.1104 141.802 78.9266 141.491 78.4276C141.179 77.9287 141.179 77.4192 141.247 77.4192C141.316 77.4192 141.423 77.8394 141.7 78.2753C141.978 78.7112 142.304 78.9791 142.265 79.0474Z" fill="#EB996E"/>
<path d="M141.939 84.8198C141.861 84.8198 141.89 83.9112 141.574 82.8712C141.349 82.2555 141.096 81.6525 140.814 81.0645C141.31 81.5094 141.661 82.1127 141.817 82.7872C142.051 83.435 142.094 84.1449 141.939 84.8198Z" fill="#EB996E"/>
<path d="M138.444 77.3301C138.429 77.4806 138.388 77.6268 138.323 77.7608C138.19 78.1646 137.949 78.5172 137.631 78.7744C137.397 78.9554 137.109 79.036 136.823 79.0003C136.659 78.9676 136.504 78.896 136.368 78.7906C136.233 78.6853 136.12 78.5488 136.04 78.391C135.866 78.0644 135.743 77.7097 135.675 77.3406C135.585 76.9625 135.52 76.5782 135.48 76.1903C135.406 75.4184 135.577 74.6422 135.967 73.9897C136.279 73.4687 136.67 73.0088 137.125 72.6294C137.424 72.3718 137.736 72.1332 138.06 71.915C138.172 71.8234 138.297 71.7508 138.43 71.6997C138.454 71.7417 137.943 72.1041 137.242 72.7501C136.82 73.1344 136.457 73.5882 136.166 74.0947C135.808 74.702 135.648 75.4213 135.713 76.1378C135.752 76.5147 135.814 76.8885 135.898 77.2565C135.959 77.5946 136.067 77.9206 136.22 78.223C136.28 78.3544 136.367 78.4696 136.474 78.5605C136.581 78.6513 136.705 78.7154 136.838 78.7482C137.074 78.7853 137.315 78.7274 137.515 78.5854C137.817 78.3592 138.058 78.0512 138.216 77.6925C138.276 77.5612 138.353 77.4393 138.444 77.3301Z" fill="#EB996E"/>
<g opacity="0.3">
<path d="M191.135 137.893L166.795 137.006C165.364 136.953 163.792 136.948 162.687 137.93C161.582 138.912 161.314 140.388 161.041 141.806C159.811 148.245 158.578 154.685 157.342 161.124L158.116 162.558C162.953 159.321 166.512 154.271 168.11 148.377C168.528 146.801 168.991 144.942 170.412 144.375C171.054 144.176 171.731 144.138 172.388 144.264L178.152 144.873C180.912 145.173 183.774 145.456 186.393 144.48C189.012 143.503 191.295 140.882 191.135 137.893Z" fill="black"/>
</g>
<path d="M155.573 108.287C155.573 108.287 151.265 106.27 146.27 109.489C142.444 111.958 117.881 154.821 117.881 154.821L133.765 166.586L155.573 131.69L164.52 139.999C164.52 139.999 183.018 144.044 188.524 141.491C194.029 138.938 197.052 132.174 196.609 126.386C196.389 122.984 195.622 119.65 194.341 116.533C187.969 117.583 183.632 120.083 174.918 115.577L155.573 108.287Z" fill="#263238"/>
<path d="M154.95 129.894C154.95 129.894 166.38 134.742 166.526 138.103C166.672 141.465 151.037 184.727 151.037 184.727L135.265 178.524L143.73 148.939C143.73 148.939 147.254 138.188 149.902 135.283C152.551 132.379 154.95 129.894 154.95 129.894Z" fill="#263238"/>
<path d="M139.733 118.46C139.733 118.46 139.704 118.523 139.636 118.639L139.32 119.164L138.093 121.17C137.017 122.93 135.455 125.477 133.498 128.681C129.603 135.104 124.093 144.186 117.984 154.905L117.95 154.732L132.032 165.147C132.641 165.604 133.249 166.05 133.838 166.486L133.663 166.523L155.501 131.654C156.42 130.861 157.157 129.851 157.657 128.702C158.107 127.679 158.415 126.591 158.572 125.472C158.795 124.014 158.709 122.52 158.323 121.102C157.936 119.684 157.257 118.379 156.338 117.284C156.153 117.063 155.958 116.853 155.754 116.653C155.617 116.517 155.554 116.443 155.554 116.443C155.853 116.675 156.133 116.933 156.391 117.215C157.126 118.052 157.715 119.026 158.129 120.088C158.792 121.785 159 123.649 158.728 125.467C158.578 126.602 158.273 127.706 157.823 128.744C157.318 129.924 156.566 130.961 155.627 131.775L133.853 166.67L133.78 166.786L133.678 166.707L131.906 165.368L117.833 154.942L117.74 154.869L117.799 154.763C123.922 144.044 129.443 134.989 133.376 128.586L138.035 121.118L139.29 119.132L139.621 118.607C139.656 118.556 139.694 118.507 139.733 118.46Z" fill="#455A64"/>
<path d="M151.158 184.843C151.171 184.78 151.189 184.718 151.212 184.659C151.251 184.522 151.309 184.344 151.382 184.134C151.548 183.645 151.781 182.957 152.073 182.07C152.692 180.268 153.573 177.684 154.658 174.496C156.844 168.083 159.852 159.265 163.182 149.501C163.956 147.195 164.71 144.937 165.416 142.746C165.832 141.713 166.068 140.605 166.112 139.48C166.092 138.405 165.751 137.366 165.139 136.517C164.54 135.711 163.807 135.032 162.977 134.516C162.195 134.009 161.368 133.585 160.509 133.25C158.956 132.633 157.348 132.193 155.71 131.937L155.422 131.89L155.68 131.748C157.068 130.953 158.242 129.784 159.088 128.355C159.733 127.275 160.201 126.083 160.471 124.831C160.638 124.038 160.726 123.228 160.733 122.415C160.733 122.137 160.733 121.927 160.733 121.78C160.728 121.708 160.728 121.636 160.733 121.564C160.749 121.635 160.757 121.707 160.758 121.78C160.758 121.921 160.792 122.137 160.797 122.415C160.811 123.236 160.737 124.055 160.578 124.857C160.328 126.131 159.868 127.346 159.219 128.445C158.368 129.91 157.174 131.109 155.758 131.922L155.729 131.732C157.39 131.975 159.022 132.408 160.597 133.025C161.467 133.365 162.307 133.793 163.104 134.301C163.96 134.829 164.716 135.525 165.334 136.354C165.988 137.242 166.359 138.335 166.39 139.469C166.349 140.626 166.111 141.766 165.689 142.83C164.983 145.026 164.229 147.279 163.455 149.59C160.154 159.359 157.087 168.178 154.858 174.554C153.743 177.731 152.833 180.331 152.2 182.101C151.888 182.978 151.64 183.677 151.465 184.15L151.27 184.675C151.239 184.735 151.201 184.792 151.158 184.843Z" fill="#455A64"/>
<path d="M186.426 129.895C186.494 128.886 186.437 127.872 186.255 126.88C185.704 124.503 184.503 122.36 182.809 120.729C181.086 119.135 179.164 117.811 177.099 116.795L175.229 115.829C174.993 115.728 174.766 115.601 174.553 115.451C174.798 115.524 175.038 115.618 175.268 115.735C175.721 115.934 176.373 116.228 177.172 116.617C179.28 117.594 181.237 118.913 182.974 120.53C184.708 122.189 185.916 124.393 186.426 126.832C186.561 127.57 186.602 128.325 186.547 129.075C186.547 129.338 186.484 129.543 186.469 129.679C186.465 129.753 186.45 129.825 186.426 129.895Z" fill="#455A64"/>
<g opacity="0.3">
<path d="M178.151 100.776C177.324 101.664 176.404 102.572 175.23 102.777C174.213 102.961 173.191 102.556 172.222 102.162L155.842 95.4344L154.518 97.3882C160.155 102.325 167.198 106.648 174.155 108.46C175.3 108.746 176.488 108.766 177.641 108.52C178.794 108.274 179.885 107.766 180.843 107.031C182.304 105.881 183.194 104.09 183.929 102.304C185.634 98.1549 186.737 93.7477 187.201 89.2368C184.495 93.3551 181.468 97.2156 178.151 100.776Z" fill="black"/>
</g>
<path d="M182.352 67.2146C181.938 67.6873 172.407 89.631 172.407 89.631L153.909 85.1719L151.825 96.1543C151.825 96.1543 168.585 104.18 172.971 105.608C175.77 106.517 177.698 106.328 180.444 103.507C183.189 100.687 190.136 82.4985 190.914 78.8587C191.654 75.3765 194.322 66.1431 185.073 61.6052L182.352 67.2146Z" fill="#9D0EE0"/>
<path d="M139.632 81.3795L126.333 61.4947C126.205 61.3095 126.029 61.169 125.827 61.0905C125.626 61.0121 125.407 60.9992 125.199 61.0535L111.948 64.3099C111.781 64.3373 111.624 64.4111 111.491 64.5241C111.359 64.6372 111.255 64.7855 111.192 64.9546C111.129 65.1236 111.107 65.3076 111.13 65.4883C111.152 65.669 111.218 65.8403 111.32 65.9853L124.951 86.1065C125.108 86.3273 125.331 86.4821 125.583 86.5444C125.834 86.6067 126.098 86.5726 126.328 86.4479L127.74 85.6916C127.824 85.6475 127.912 85.614 128.003 85.5918L138.985 83.076C139.157 83.0539 139.32 82.9827 139.458 82.8696C139.597 82.7566 139.704 82.6058 139.77 82.4329C139.836 82.2599 139.858 82.0711 139.834 81.886C139.81 81.7008 139.74 81.526 139.632 81.3795Z" fill="#263238"/>
<path d="M139.631 81.3797C139.676 81.4352 139.714 81.4971 139.743 81.5636C139.833 81.7644 139.858 81.9914 139.816 82.2096C139.784 82.3884 139.71 82.5558 139.603 82.6969C139.496 82.838 139.359 82.9484 139.203 83.0184C138.823 83.1602 138.39 83.2285 137.903 83.3598L129.598 85.3241L128.255 85.6393C128.028 85.68 127.809 85.7617 127.608 85.8809L126.955 86.2328C126.736 86.3483 126.527 86.4691 126.283 86.5899C126.025 86.7024 125.738 86.7146 125.471 86.6246C125.205 86.5346 124.976 86.3479 124.823 86.0962L124.336 85.4134L120.369 79.5572L111.246 66.1221C111.125 65.9614 111.045 65.7693 111.013 65.5648C110.981 65.3604 111 65.1505 111.066 64.9561C111.135 64.7643 111.247 64.5936 111.391 64.4591C111.535 64.3245 111.708 64.23 111.894 64.184L113.841 63.7008L117.677 62.7554L124.94 60.9801C125.09 60.9372 125.243 60.9091 125.397 60.8961C125.564 60.8897 125.729 60.9201 125.884 60.9854C126.036 61.0483 126.174 61.145 126.288 61.269C126.392 61.3873 126.484 61.5156 126.566 61.6524L127.564 63.1493L129.472 66.017L132.879 71.1589L137.82 78.6223L139.154 80.6602L139.495 81.1854C139.535 81.2463 139.573 81.3094 139.607 81.3745C139.556 81.3232 139.512 81.265 139.475 81.2011L139.11 80.6759L137.747 78.6853L132.738 71.2745L129.292 66.1483L127.374 63.2911L126.371 61.7995C126.244 61.5406 126.04 61.3353 125.792 61.2165C125.667 61.1671 125.535 61.1439 125.402 61.1482C125.264 61.1584 125.127 61.1848 124.993 61.227L117.735 63.018L113.895 63.9634L111.947 64.4466C111.802 64.4828 111.666 64.5567 111.552 64.6619C111.439 64.7671 111.35 64.9005 111.295 65.0506C111.245 65.204 111.232 65.3689 111.259 65.529C111.285 65.6892 111.35 65.8393 111.446 65.9645C114.678 70.7335 117.774 75.2714 120.554 79.4101C121.951 81.4743 123.28 83.4386 124.521 85.2821L125.008 85.9649C125.133 86.182 125.327 86.3426 125.553 86.4166C125.775 86.4898 126.013 86.4805 126.23 86.3903C126.444 86.2853 126.673 86.1592 126.892 86.0437L127.525 85.7023C127.743 85.5789 127.978 85.4922 128.221 85.4449L129.569 85.1403L137.884 83.26C138.37 83.1392 138.828 83.0762 139.179 82.9501C139.326 82.8875 139.458 82.7868 139.561 82.6568C139.665 82.5268 139.737 82.3715 139.772 82.2043C139.817 81.9973 139.8 81.7805 139.724 81.5846C139.665 81.4428 139.621 81.385 139.631 81.3797Z" fill="#455A64"/>
<path d="M139.411 82.7345C139.32 82.6336 139.237 82.5247 139.163 82.4089L138.491 81.4582L136.057 77.913C134.003 74.8877 131.19 70.749 128.094 66.169C127.315 65.0346 126.565 63.8686 125.83 62.8444C125.626 62.629 125.366 62.4845 125.085 62.4295C124.804 62.3746 124.515 62.3962 124.243 62.4925L122.53 62.9074L116.615 64.336L112.619 65.2762L111.533 65.5178C111.407 65.5522 111.278 65.575 111.148 65.586C111.268 65.5349 111.392 65.4945 111.518 65.4652L112.599 65.1764L116.576 64.1259L122.481 62.6395L124.19 62.2141C124.495 62.114 124.818 62.0907 125.134 62.1458C125.463 62.2114 125.766 62.3814 126.005 62.6343C126.794 63.7215 127.509 64.8402 128.298 65.9905L136.199 77.8237L138.569 81.4162L139.202 82.3984C139.283 82.502 139.353 82.6147 139.411 82.7345Z" fill="#455A64"/>
<path d="M120.126 67.8814C120.513 67.8814 120.827 67.5945 120.827 67.2406C120.827 66.8867 120.513 66.5999 120.126 66.5999C119.739 66.5999 119.425 66.8867 119.425 67.2406C119.425 67.5945 119.739 67.8814 120.126 67.8814Z" fill="white"/>
<path d="M124.498 71.3528C124.439 71.7362 122.064 79.4675 121.723 80.2185C121.382 80.9696 121.723 82.4402 121.723 82.4402C121.723 82.4402 120.895 84.289 122.21 85.56C122.21 85.56 122.302 87.2197 122.993 87.5348C123.471 87.7924 123.888 88.1621 124.215 88.6168C124.215 88.6168 128.11 94.3522 128.528 94.9194C129.232 95.7174 129.975 96.4748 130.753 97.1884C130.753 97.1884 136.254 95.0245 133.333 89.3679L131.678 88.2334L132.247 83.6535C132.247 83.6535 133.605 82.5032 133.309 81.7364C133.285 81.6387 133.242 81.5478 133.182 81.4701C133.123 81.3924 133.048 81.3298 132.964 81.2867C132.879 81.2436 132.787 81.221 132.693 81.2207C132.6 81.2204 132.507 81.2422 132.423 81.2847C132.423 81.2847 132.943 79.7091 131.678 79.4412L126.81 81.9728C126.81 81.9728 130.417 78.0546 129.882 76.9727C129.346 75.8907 129.117 76.064 129.117 76.064L124.454 80.3236C124.454 80.3236 125.612 75.6333 125.914 74.1365C126.503 71.3528 124.498 71.3528 124.498 71.3528Z" fill="#FFBE9D"/>
<path d="M132.34 81.5369C132.094 81.9288 131.799 82.2822 131.463 82.5873C129.931 84.1231 128.142 85.3314 126.192 86.1483C125.796 86.341 125.379 86.4769 124.95 86.5527C125.328 86.3297 125.72 86.1349 126.123 85.9697C127.063 85.5093 127.974 84.9829 128.849 84.3941C129.722 83.8006 130.556 83.1443 131.347 82.4297C131.662 82.1121 131.993 81.814 132.34 81.5369Z" fill="#EB996E"/>
<path d="M129.102 76.0698C128.877 76.4394 128.603 76.772 128.289 77.0572C127.749 77.6245 126.965 78.3598 126.065 79.1266C124.264 80.6655 122.657 81.7527 122.623 81.6424C122.934 81.3554 123.259 81.0872 123.597 80.8388C124.195 80.3556 125.023 79.6781 125.919 78.9165C126.814 78.155 127.618 77.4407 128.182 76.9154C128.471 76.6112 128.778 76.3287 129.102 76.0698Z" fill="#EB996E"/>
<path d="M131.613 82.7715C131.613 82.7715 131.701 82.656 131.91 82.7033C132.05 82.7516 132.172 82.846 132.26 82.9732C132.347 83.1005 132.395 83.254 132.397 83.4123C132.353 83.8626 132.159 84.2805 131.852 84.5888C131.565 84.9565 131.239 85.3504 130.878 85.7495C130.268 86.4331 129.618 87.0734 128.931 87.6666C128.662 87.9306 128.363 88.1566 128.04 88.3389C127.992 88.2758 129.277 87.1466 130.684 85.5605C131.034 85.1665 131.365 84.7779 131.657 84.426C131.937 84.1628 132.128 83.8059 132.198 83.4123C132.199 83.2847 132.166 83.1595 132.103 83.0515C132.04 82.9435 131.949 82.8573 131.842 82.803C131.725 82.7348 131.618 82.7978 131.613 82.7715Z" fill="#EB996E"/>
<path d="M131.165 88.0448C131.107 88.0868 130.859 87.7875 130.508 87.4828C130.158 87.1782 129.841 86.9576 129.866 86.8998C129.89 86.8421 130.289 86.9314 130.669 87.2728C131.048 87.6141 131.224 88.0081 131.165 88.0448Z" fill="#EB996E"/>
<path d="M131.301 91.2696C131.331 91.2696 131.331 91.5427 131.17 91.9314C130.956 92.4411 130.587 92.8563 130.123 93.1079C129.657 93.3545 129.127 93.4247 128.619 93.3075C128.235 93.2129 128.04 93.0501 128.054 93.0239C128.069 92.9976 128.288 93.0764 128.648 93.1184C129.115 93.1744 129.586 93.0837 130.006 92.8573C130.426 92.6308 130.776 92.2783 131.014 91.8421C131.199 91.506 131.262 91.2644 131.301 91.2696Z" fill="#EB996E"/>
<path d="M131.74 79.4888C131.403 79.7609 131.039 79.9916 130.654 80.1768C129.963 80.5602 129.004 81.0697 127.923 81.5949C126.843 82.1201 125.85 82.5561 125.124 82.8502C124.741 83.035 124.341 83.1775 123.932 83.2756C124.287 83.0355 124.664 82.8332 125.056 82.6716L127.816 81.3428L130.571 80.0035C130.945 79.7923 131.336 79.62 131.74 79.4888Z" fill="#EB996E"/>
<path d="M180.516 71.2849C180.516 71.2849 180.477 71.4005 180.385 71.6211L179.976 72.5875C179.601 73.4436 179.066 74.6883 178.374 76.264C176.972 79.4626 174.967 84.053 172.499 89.6676L172.465 89.7464H172.387L153.889 85.3136L154.035 85.2085C153.368 88.7275 152.672 92.4093 151.956 96.1961L151.883 96.0438L153.344 96.7371C159.638 99.6994 165.64 102.515 171.199 104.82C172.524 105.43 173.928 105.819 175.361 105.976C176.716 106.005 178.038 105.52 179.095 104.605C179.623 104.2 180.112 103.739 180.555 103.229C180.768 102.984 180.962 102.721 181.134 102.441C181.305 102.163 181.495 101.916 181.646 101.611C181.957 101.044 182.269 100.487 182.536 99.9252C182.804 99.3632 183.082 98.8117 183.33 98.2708C185.316 93.9167 186.689 90.2664 187.662 87.7663C188.149 86.5163 188.5 85.5447 188.753 84.8724L189.04 84.1161C189.103 83.948 189.142 83.864 189.142 83.864C189.142 83.864 189.118 83.9532 189.064 84.1266L188.801 84.8934C188.568 85.5604 188.217 86.5426 187.75 87.8084C186.81 90.3294 185.462 93.985 183.491 98.3601C183.242 98.8853 183.004 99.463 182.702 100.025C182.4 100.587 182.127 101.154 181.811 101.727C181.665 102.016 181.47 102.289 181.3 102.572C181.121 102.861 180.921 103.133 180.701 103.386C180.257 103.905 179.768 104.376 179.241 104.794C178.693 105.231 178.092 105.585 177.454 105.844C176.789 106.111 176.08 106.233 175.371 106.202C173.913 106.05 172.484 105.659 171.136 105.041C165.562 102.761 159.56 99.9357 153.261 96.9682L151.8 96.2749L151.703 96.2329L151.727 96.1226C152.443 92.341 153.144 88.654 153.816 85.1402V85.0089L153.937 85.0352L172.436 89.5258L172.324 89.5836L178.272 76.2482L179.922 72.5717L180.36 71.6211C180.458 71.3952 180.516 71.2849 180.516 71.2849Z" fill="#263238"/>
<path d="M187.727 104.526C187.591 104.695 187.438 104.844 187.269 104.973C186.967 105.251 186.51 105.624 185.925 106.06C182.848 108.317 179.339 109.796 175.659 110.388C174.958 110.493 174.384 110.556 173.989 110.577C173.784 110.602 173.577 110.602 173.371 110.577C173.569 110.515 173.774 110.478 173.98 110.466C174.369 110.414 174.953 110.325 175.63 110.188C179.26 109.502 182.726 108.037 185.823 105.881C186.417 105.472 186.889 105.125 187.211 104.873C187.371 104.738 187.544 104.622 187.727 104.526Z" fill="#263238"/>
<path d="M187.61 106.648C187.61 106.648 187.517 106.784 187.323 106.994C187.128 107.204 186.836 107.493 186.461 107.84C184.506 109.651 182.339 111.178 180.016 112.383C179.573 112.614 179.208 112.788 178.95 112.908C178.821 112.978 178.683 113.027 178.541 113.055C178.988 112.747 179.453 112.47 179.933 112.226C180.8 111.7 181.983 111.002 183.234 110.125C184.485 109.248 185.575 108.365 186.344 107.709C186.746 107.328 187.168 106.973 187.61 106.648Z" fill="#263238"/>
<path d="M113.597 170.431L113.134 171.087C113.134 171.087 99.6015 167.096 98 169.128L118.674 185.862L123.542 178.214C119.414 177.259 116.075 174.832 113.597 170.431Z" fill="#9D0EE0"/>
<g opacity="0.6">
<path d="M119.809 178.892C119.963 179.118 120.034 179.398 120.009 179.677C119.983 179.956 119.864 180.215 119.673 180.405C119.468 180.577 119.21 180.659 118.952 180.634C118.693 180.608 118.453 180.478 118.28 180.268C118.12 180.027 118.048 179.731 118.076 179.436C118.105 179.14 118.233 178.867 118.436 178.666C118.666 178.509 118.944 178.453 119.211 178.512C119.478 178.571 119.713 178.739 119.867 178.982" fill="white"/>
</g>
<g opacity="0.6">
<path d="M118.674 185.862L119.847 184.023L99.6015 168.655C99.6015 168.655 98.3846 168.346 98 169.128L118.674 185.862Z" fill="white"/>
</g>
<path d="M113.018 171.092C112.945 171.203 113.417 171.66 113.671 172.411C113.924 173.162 113.87 173.834 113.992 173.866C114.114 173.897 114.401 173.151 114.08 172.243C113.758 171.334 113.067 170.972 113.018 171.092Z" fill="#263238"/>
<path d="M110.177 170.305C110.08 170.389 110.391 170.93 110.411 171.665C110.43 172.4 110.196 172.973 110.299 173.051C110.401 173.13 110.897 172.563 110.849 171.644C110.8 170.725 110.25 170.199 110.177 170.305Z" fill="#263238"/>
<path d="M106.997 172.106C107.075 172.206 107.591 171.775 107.747 170.966C107.902 170.158 107.596 169.543 107.489 169.596C107.382 169.648 107.455 170.21 107.318 170.867C107.182 171.523 106.905 172.012 106.997 172.106Z" fill="#263238"/>
<path d="M143.959 194.37C143.959 194.37 136.277 197.622 134.009 192.543L132.724 194.423L125.753 208.2C125.528 208.632 125.458 209.139 125.558 209.624C125.658 210.109 125.92 210.536 126.293 210.826C126.587 211.042 126.93 211.166 127.285 211.184C127.641 211.201 127.993 211.112 128.304 210.925C131.614 208.898 143.754 201.377 143.954 199.99L144.704 196.366C144.777 195.995 144.746 195.607 144.613 195.255C144.48 194.903 144.252 194.602 143.959 194.391V194.37Z" fill="#9D0EE0"/>
<g opacity="0.6">
<path d="M126.601 210.983L144.232 198.714L144.057 199.502C143.94 200.379 143.512 200.626 143.005 201.077C141.506 202.411 137.539 205.237 128.358 210.92C128.092 211.084 127.793 211.175 127.486 211.186C127.18 211.197 126.876 211.127 126.601 210.983Z" fill="white"/>
</g>
<g opacity="0.6">
<path d="M142.668 195.836C142.414 195.943 142.208 196.15 142.089 196.415C141.971 196.68 141.95 196.983 142.03 197.264C142.135 197.54 142.331 197.764 142.58 197.892C142.83 198.02 143.114 198.044 143.379 197.958C143.507 197.9 143.623 197.816 143.721 197.711C143.818 197.605 143.896 197.48 143.949 197.342C144.002 197.204 144.029 197.056 144.029 196.906C144.029 196.757 144.001 196.609 143.948 196.471C143.895 196.333 143.818 196.208 143.72 196.102C143.622 195.997 143.505 195.913 143.377 195.856C143.25 195.799 143.112 195.77 142.974 195.77C142.836 195.77 142.699 195.799 142.571 195.857" fill="white"/>
</g>
<path d="M132.456 203.877C132.344 203.903 132.159 202.826 131.225 202.028C130.29 201.23 129.277 201.214 129.277 201.093C129.277 200.972 129.53 200.957 129.959 200.999C130.518 201.078 131.045 201.323 131.483 201.708C131.919 202.083 132.245 202.586 132.422 203.157C132.539 203.609 132.505 203.877 132.456 203.877Z" fill="#263238"/>
<path d="M130.64 206.062C130.538 206.119 130.105 205.368 129.248 204.853C128.391 204.339 127.573 204.297 127.568 204.176C127.564 204.055 128.479 203.892 129.447 204.491C130.416 205.09 130.742 206.035 130.64 206.062Z" fill="#263238"/>
<path d="M135.517 201.303C135.415 201.371 134.748 200.211 133.482 199.292C132.216 198.372 130.975 198.094 130.999 197.968C131.024 197.842 132.367 197.942 133.711 198.95C135.054 199.959 135.614 201.277 135.517 201.303Z" fill="#263238"/>
<path d="M136.808 196.902C136.735 197.002 135.835 196.319 134.589 195.941C133.342 195.563 132.247 195.626 132.233 195.5C132.218 195.373 133.342 195.116 134.696 195.536C136.049 195.956 136.886 196.828 136.808 196.902Z" fill="#263238"/>
<path d="M133.854 195.715C133.889 195.473 133.976 195.243 134.107 195.043C134.416 194.461 134.83 193.952 135.324 193.546C135.669 193.213 136.105 193.011 136.566 192.968C136.719 192.968 136.868 193.018 136.994 193.112C137.121 193.206 137.217 193.339 137.271 193.493C137.359 193.796 137.336 194.122 137.208 194.407C136.916 194.982 136.449 195.43 135.885 195.676C135.322 195.921 134.697 195.948 134.117 195.752C133.545 195.556 133.04 195.184 132.663 194.68C132.287 194.177 132.056 193.565 132 192.921C131.989 192.76 132.011 192.599 132.064 192.449C132.117 192.298 132.2 192.162 132.306 192.049C132.429 191.948 132.577 191.891 132.731 191.883C132.885 191.876 133.037 191.919 133.168 192.007C133.538 192.293 133.832 192.679 134.02 193.126C134.315 193.715 134.51 194.358 134.594 195.022C134.646 195.26 134.646 195.508 134.594 195.747C134.436 194.88 134.157 194.044 133.767 193.267C133.596 192.892 133.342 192.567 133.027 192.322C132.958 192.262 132.872 192.23 132.783 192.23C132.695 192.23 132.609 192.262 132.54 192.322C132.475 192.401 132.426 192.493 132.397 192.594C132.367 192.694 132.358 192.8 132.37 192.905C132.433 193.46 132.642 193.983 132.971 194.415C133.301 194.846 133.737 195.168 134.229 195.342C134.72 195.504 135.248 195.483 135.727 195.283C136.206 195.083 136.609 194.715 136.872 194.239C136.965 194.041 136.989 193.814 136.94 193.598C136.912 193.513 136.86 193.439 136.791 193.386C136.722 193.334 136.64 193.305 136.556 193.304C136.166 193.343 135.796 193.508 135.495 193.777C134.846 194.313 134.29 194.969 133.854 195.715Z" fill="#263238"/>
<path d="M174.715 30.1495C174.258 28.8417 174.438 27.3868 174.253 26.0055C173.854 22.954 171.585 20.5117 168.956 19.3194C166.522 18.2112 163.519 18.4476 160.569 19.4718C158.524 20.1363 156.695 21.4108 155.292 23.1483C154.404 24.336 153.792 25.7355 153.507 27.2301C153.221 28.7247 153.271 30.2712 153.652 31.7409L168.1 29.5035C169.453 30.7167 170.835 31.9457 172.481 32.618C172.953 32.8443 173.471 32.9348 173.985 32.8806C174.242 32.8494 174.486 32.7386 174.686 32.5616C174.887 32.3846 175.035 32.1488 175.114 31.8827C175.231 31.2997 174.915 30.7167 174.715 30.1495Z" fill="#263238"/>
<path d="M165.738 18.5369C168.897 17.9591 171.677 19.2774 174.34 21.205C177.005 23.1846 179.044 25.9984 180.181 29.2671C181.398 32.6653 181.705 37.5814 180.76 41.0846C180.34 42.7324 179.558 44.2462 178.479 45.4972C177.4 46.7482 176.057 47.6994 174.563 48.2696C170.216 49.9241 165.193 49.7245 161.513 46.694C157.832 43.6634 155.739 38.7211 155.569 33.7473C155.409 30.2942 156.26 26.8744 158.003 23.9729C158.88 22.5375 160.021 21.3122 161.356 20.3734C162.691 19.4345 164.191 18.8022 165.762 18.5159" fill="#263238"/>
<path d="M160.83 58.4168C160.83 58.6899 160.855 58.9892 160.869 59.3096C160.869 59.3096 160.869 59.3989 160.869 59.546C161.025 61.4315 161.843 64.982 165.737 65.0345C170.605 65.1028 174.329 59.2571 174.884 58.3537L175.064 29.3878C175.054 28.7513 174.823 28.142 174.417 27.6809C174.01 27.2197 173.457 26.9403 172.869 26.8982L160.261 23.999C156.25 23.7049 153.772 29.1252 153.67 33.453C153.558 38.2798 153.597 44.1728 154.249 47.739C155.563 54.9135 160.723 55.6173 160.723 55.6173C160.723 55.6173 160.743 56.4524 160.83 58.4168Z" fill="#FFBE9D"/>
<path d="M155.573 38.7735C155.58 39.015 155.673 39.2442 155.834 39.4121C155.995 39.5799 156.211 39.6731 156.435 39.6716C156.544 39.6773 156.654 39.659 156.757 39.6178C156.86 39.5766 156.954 39.5134 157.033 39.4319C157.113 39.3504 157.176 39.2524 157.22 39.1438C157.263 39.0352 157.286 38.9181 157.287 38.7998C157.28 38.5592 157.187 38.3308 157.027 38.163C156.867 37.9953 156.653 37.9015 156.43 37.9016C156.32 37.8967 156.211 37.9155 156.108 37.9569C156.005 37.9983 155.911 38.0615 155.831 38.1428C155.751 38.224 155.688 38.3217 155.643 38.43C155.599 38.5383 155.575 38.6551 155.573 38.7735Z" fill="#263238"/>
<path d="M154.949 36.2578C155.061 36.3734 155.694 35.8271 156.619 35.7956C157.544 35.7641 158.235 36.2316 158.333 36.1055C158.43 35.9795 158.26 35.8324 157.958 35.6171C157.548 35.3327 157.067 35.1931 156.58 35.2179C156.1 35.2356 155.637 35.4198 155.261 35.7431C154.984 35.9847 154.896 36.2053 154.949 36.2578Z" fill="#263238"/>
<path d="M163.849 38.5582C163.855 38.8002 163.949 39.03 164.109 39.1987C164.27 39.3674 164.486 39.4617 164.71 39.4616C164.82 39.4658 164.929 39.4465 165.031 39.4048C165.134 39.3632 165.228 39.2999 165.307 39.2188C165.387 39.1377 165.451 39.0404 165.496 38.9324C165.54 38.8244 165.564 38.7079 165.567 38.5897C165.559 38.3482 165.466 38.1192 165.305 37.9508C165.144 37.7823 164.929 37.6876 164.705 37.6864C164.596 37.6822 164.487 37.7014 164.384 37.7431C164.282 37.7848 164.188 37.848 164.108 37.9291C164.028 38.0102 163.964 38.1076 163.92 38.2156C163.875 38.3236 163.851 38.44 163.849 38.5582Z" fill="#263238"/>
<path d="M163.723 36.0269C163.83 36.1424 164.463 35.5962 165.388 35.5647C166.313 35.5332 167.004 36.0006 167.101 35.8746C167.198 35.7485 167.033 35.6067 166.726 35.3861C166.319 35.1018 165.839 34.9622 165.354 34.9869C164.871 35.0046 164.407 35.1887 164.029 35.5122C163.757 35.7538 163.664 35.9743 163.723 36.0269Z" fill="#263238"/>
<path d="M160.942 43.6007C160.448 43.4552 159.94 43.3776 159.428 43.3696C159.195 43.3696 158.971 43.3118 158.941 43.1385C158.913 42.8762 158.959 42.6108 159.073 42.3769C159.272 41.7519 159.482 41.1007 159.706 40.4126C160.577 37.6184 161.2 35.318 161.093 35.2812C160.986 35.2444 160.197 37.4819 159.326 40.2813C159.117 40.9694 158.912 41.6259 158.722 42.2561C158.587 42.5696 158.556 42.924 158.635 43.2593C158.672 43.3481 158.728 43.4265 158.798 43.4884C158.868 43.5503 158.951 43.5941 159.039 43.6165C159.169 43.6495 159.304 43.6636 159.438 43.6585C159.94 43.7064 160.445 43.6869 160.942 43.6007Z" fill="#263238"/>
<path d="M160.715 55.4177C163.867 55.3418 166.938 54.3217 169.584 52.4712C169.584 52.4712 167.506 57.5606 160.788 57.1562L160.715 55.4177Z" fill="#EB996E"/>
<path d="M161.414 45.9848C161.58 45.7397 161.801 45.5444 162.057 45.4176C162.312 45.2907 162.594 45.2365 162.874 45.26C163.078 45.2705 163.278 45.3257 163.461 45.4224C163.644 45.519 163.807 45.655 163.94 45.822C164.069 45.9837 164.149 46.1838 164.17 46.3958C164.191 46.6079 164.152 46.8217 164.057 47.009C163.915 47.1931 163.725 47.3274 163.512 47.3947C163.299 47.4621 163.072 47.4594 162.86 47.3871C162.416 47.2402 162.006 46.9971 161.652 46.6728C161.545 46.5994 161.452 46.5028 161.38 46.3892C161.346 46.3351 161.327 46.271 161.327 46.2054C161.327 46.1398 161.346 46.0757 161.38 46.0216" fill="#EB996E"/>
<path d="M163.684 44.1783C163.533 44.1783 163.567 45.2603 162.734 46.0586C161.902 46.8569 160.836 46.7886 160.831 46.9357C160.826 47.0828 161.079 47.1405 161.527 47.1353C162.114 47.1176 162.677 46.8799 163.119 46.463C163.542 46.0593 163.804 45.4946 163.849 44.8873C163.874 44.4357 163.752 44.173 163.684 44.1783Z" fill="#263238"/>
<path d="M163.776 33.0697C163.873 33.3376 164.793 33.1695 165.879 33.2693C166.964 33.3691 167.855 33.6475 167.991 33.4006C168.054 33.2798 167.889 33.033 167.529 32.7861C167.046 32.4844 166.506 32.3049 165.949 32.2612C165.393 32.2175 164.834 32.3108 164.316 32.534C163.926 32.7231 163.732 32.9437 163.776 33.0697Z" fill="#263238"/>
<path d="M155.067 31.888C155.237 32.1086 155.865 31.8512 156.63 31.8092C157.394 31.7672 158.046 31.9038 158.187 31.6569C158.251 31.5414 158.139 31.3208 157.851 31.1317C157.464 30.8856 157.015 30.7738 156.566 30.8113C156.115 30.8423 155.684 31.0261 155.335 31.3365C155.072 31.5466 154.994 31.7829 155.067 31.888Z" fill="#263238"/>
<path d="M177.032 28.0538C175.727 23.9045 170.027 18.2532 165.986 18.6418L159.595 22.9486C159.826 24.1335 160.349 25.2291 161.109 26.1202C161.869 27.0112 162.837 27.6647 163.913 28.0118C165.061 28.3637 166.439 28.4424 167.14 29.4876C167.841 30.5328 167.471 32.14 168.138 33.243C169.058 34.7714 171.506 34.6506 172.203 36.3103C172.509 37.0351 172.373 37.8859 172.689 38.6317C173.113 39.5876 175.401 40.7694 176.335 40.428C177.27 40.0866 177.241 38.3639 177.533 37.4552C177.904 36.4297 177.931 35.2965 177.611 34.2514C177.178 32.2188 177.664 30.0286 177.032 28.0538Z" fill="#263238"/>
<path d="M173.58 41.3366C173.58 40.8114 174.096 39.5088 174.588 39.4038C175.892 39.1307 178.263 39.1517 178.414 42.7494C178.613 47.6708 173.994 46.8724 173.979 46.7306C173.965 46.5888 173.643 43.1959 173.58 41.3366Z" fill="#FFBE9D"/>
<path d="M175.293 44.803C175.293 44.803 175.376 44.8556 175.512 44.9186C175.705 44.9997 175.919 44.9997 176.111 44.9186C176.598 44.7033 176.953 43.8681 176.939 42.97C176.936 42.5484 176.842 42.1332 176.666 41.7568C176.619 41.6043 176.537 41.4669 176.428 41.3569C176.32 41.2469 176.187 41.1677 176.043 41.1265C175.951 41.1051 175.855 41.1191 175.771 41.1661C175.688 41.2131 175.622 41.2901 175.585 41.3838C175.527 41.5257 175.561 41.6202 175.537 41.6307C175.512 41.6412 175.435 41.5519 175.464 41.3471C175.484 41.2235 175.544 41.1117 175.634 41.032C175.694 40.9775 175.763 40.9364 175.837 40.9111C175.911 40.8859 175.99 40.877 176.067 40.8849C176.256 40.9167 176.435 41 176.585 41.1268C176.736 41.2536 176.854 41.4198 176.929 41.6097C177.139 42.0261 177.252 42.4909 177.26 42.9648C177.26 43.9574 176.837 44.9081 176.189 45.1444C176.068 45.189 175.939 45.2036 175.812 45.1872C175.684 45.1709 175.562 45.1239 175.454 45.0499C175.308 44.9186 175.279 44.8135 175.293 44.803Z" fill="#EB996E"/>
<path d="M181.164 34.6086C181.299 34.1309 181.357 33.6316 181.335 33.1328C181.348 31.9243 181.172 30.7222 180.814 29.577C180.456 28.4403 179.927 27.3754 179.246 26.4257C178.979 26.0185 178.65 25.6633 178.273 25.3752C178.19 25.4383 179.733 27.077 180.517 29.7188C181.301 32.3607 181.072 34.6086 181.164 34.6086Z" fill="#9D0EE0"/>
<path d="M160.923 21.4625C160.5 23.4688 157.676 26.0319 156.435 27.5918C154.069 30.5646 153.621 31.0005 153.641 39.966C152.41 37.1753 151.76 34.1277 151.737 31.0373C151.793 28.4178 152.735 25.9109 154.385 23.9888C155.218 23.047 156.242 22.3267 157.376 21.8846C158.511 21.4426 159.725 21.2909 160.923 21.4415" fill="#263238"/>
<path d="M179.354 27.9906C179.102 28.083 178.843 28.1515 178.58 28.1954C178.275 28.2711 177.966 28.329 177.655 28.3688C177.295 28.4213 176.881 28.4948 176.423 28.5211C175.346 28.6201 174.264 28.6306 173.186 28.5526C170.54 28.3697 167.945 27.6852 165.519 26.5305C164.532 26.0605 163.579 25.5128 162.667 24.8918C162.267 24.6397 161.936 24.3666 161.635 24.1407C161.377 23.9495 161.128 23.7444 160.89 23.5262C160.675 23.3564 160.475 23.1665 160.291 22.959C160.524 23.0981 160.745 23.258 160.953 23.4369C161.158 23.5998 161.416 23.7993 161.722 24.0042C162.029 24.209 162.365 24.4769 162.764 24.7132C163.683 25.3062 164.638 25.8326 165.621 26.2889C168.032 27.397 170.593 28.0729 173.206 28.29C174.271 28.3755 175.341 28.3861 176.409 28.3215C176.866 28.3215 177.275 28.248 177.635 28.2112C177.996 28.1744 178.307 28.1324 178.56 28.0904C178.821 28.0316 179.087 27.9982 179.354 27.9906Z" fill="#455A64"/>
<path d="M179.826 31.5204C179.656 31.5921 179.477 31.6381 179.295 31.6569C178.813 31.7557 178.325 31.8224 177.835 31.8565C174.555 32.122 171.269 31.4232 168.328 29.8344C167.885 29.5975 167.454 29.3345 167.038 29.0466C166.879 28.953 166.732 28.8383 166.6 28.7052C166.624 28.6579 167.286 29.0938 168.41 29.6506C171.358 31.1094 174.584 31.7951 177.825 31.6517C179.057 31.6044 179.821 31.4678 179.826 31.5204Z" fill="#455A64"/>
<path d="M180.979 31.6409C181.056 31.8803 181.107 32.1289 181.129 32.3814C181.228 33.0634 181.291 33.7507 181.319 34.4403C181.358 35.3122 181.373 36.3521 181.319 37.5076C181.268 38.7645 181.105 40.0133 180.833 41.2367C180.305 43.4924 179.057 45.4752 177.308 46.8355C176.778 47.2286 176.21 47.5579 175.614 47.8177C175.402 47.9269 175.178 48.008 174.947 48.0593C175.146 47.9255 175.354 47.8095 175.57 47.7126C176.138 47.4143 176.681 47.0628 177.191 46.6622C177.946 46.0656 178.604 45.3379 179.139 44.5088C179.812 43.5098 180.307 42.3841 180.599 41.1894C180.86 39.9815 181.023 38.7513 181.086 37.5128C181.154 36.3679 181.164 35.3384 181.144 34.4718C181.125 33.6052 181.091 32.8961 181.047 32.4182C181.003 32.1617 180.98 31.9016 180.979 31.6409Z" fill="#455A64"/>
<path d="M146.593 100.456C146.544 100.456 146.67 99.7834 146.666 98.6962C146.663 98.0638 146.61 97.4328 146.505 96.8106C146.37 96.0498 146.169 95.3043 145.906 94.5837C145.632 93.8683 145.297 93.1825 144.903 92.5353C144.575 92.0097 144.207 91.5143 143.803 91.0542C143.107 90.2716 142.586 89.8882 142.615 89.8462C142.755 89.9042 142.885 89.9858 143 90.0878C143.144 90.1913 143.282 90.3036 143.414 90.4239C143.595 90.5774 143.767 90.7422 143.93 90.9176C144.363 91.3657 144.753 91.8602 145.093 92.3935C145.512 93.0513 145.865 93.7556 146.145 94.4944C146.414 95.2337 146.611 96.0011 146.734 96.7844C146.829 97.4231 146.867 98.0705 146.846 98.7172C146.84 98.9649 146.822 99.2121 146.792 99.4577C146.777 99.6452 146.749 99.8312 146.709 100.014C146.693 100.167 146.653 100.316 146.593 100.456Z" fill="#263238"/>
<path d="M148.496 97.7402C148.452 97.7402 148.375 97.215 148.131 96.3956C147.493 94.2581 146.265 92.3817 144.612 91.0174C143.979 90.4922 143.546 90.2401 143.565 90.198C143.585 90.156 143.687 90.2348 143.891 90.3398C144.18 90.4893 144.457 90.665 144.719 90.8651C146.478 92.1739 147.748 94.1159 148.302 96.3431C148.387 96.6754 148.449 97.0143 148.487 97.3568C148.511 97.6037 148.516 97.735 148.496 97.7402Z" fill="#263238"/>
</svg>
