<svg width="294" height="188" viewBox="0 0 294 188" fill="none" xmlns="http://www.w3.org/2000/svg">
<path d="M132.059 134.997L292.973 134.997V100.74L132.059 100.74V134.997Z" fill="#FCCB05"/>
<path d="M262.935 134.997H278.658V100.74H262.935V134.997Z" fill="#37474F"/>
<path d="M250.537 134.997H257.1V100.74H250.537V134.997Z" fill="#37474F"/>
<path d="M146.687 134.997H162.41V100.74H146.687V134.997Z" fill="#37474F"/>
<path d="M106.249 13.6482L64.9268 181.444L87.7355 187.983L129.058 20.1871L106.249 13.6482Z" fill="#37474F"/>
<path d="M72.6362 150.119L68.5986 166.514L91.4074 173.053L95.445 156.658L72.6362 150.119Z" fill="#FCCB05"/>
<path d="M102.493 28.9115L98.4551 45.3069L121.264 51.8458L125.301 35.4503L102.493 28.9115Z" fill="#FCCB05"/>
<path d="M98.0001 187.257L284.369 187.257V170.132L98.0001 170.132V187.257Z" fill="#FCCB05"/>
<path d="M235.221 187.257H242.816V170.132H235.221V187.257Z" fill="#A6A6A6"/>
<path d="M247.838 187.257H255.433V170.132H247.838V187.257Z" fill="#A6A6A6"/>
<path d="M116.593 187.257H124.188V170.132H116.593V187.257Z" fill="#A6A6A6"/>
<path d="M129.204 187.257H136.799V170.132H129.204V187.257Z" fill="#A6A6A6"/>
<path d="M227.194 75.1831H115.569V100.739H227.194V75.1831Z" fill="#455A64"/>
<path d="M290.823 75.1831H227.188V100.739H290.823V75.1831Z" fill="#455A64"/>
<path d="M227.194 77.8333H115.569V98.0891H227.194V77.8333Z" fill="white"/>
<path d="M122.79 82.0028C131.489 81.8565 140.19 81.758 148.893 81.7074L174.989 81.6145L201.092 81.7074C209.791 81.758 218.489 81.8565 227.188 82.0028C218.489 82.1434 209.791 82.2447 201.092 82.3066L174.989 82.391L148.862 82.2981C140.184 82.2475 131.494 82.1491 122.79 82.0028Z" fill="#DBDBDB"/>
<path d="M122.79 85.9778C131.489 85.8372 140.19 85.7359 148.893 85.674L174.989 85.5896L201.092 85.674C209.791 85.7359 218.489 85.8372 227.188 85.9778C218.489 86.1185 209.791 86.217 201.092 86.2732L174.989 86.3661L148.862 86.2732C140.184 86.2226 131.494 86.1241 122.79 85.9778Z" fill="#DBDBDB"/>
<path d="M122.79 89.9527C131.489 89.812 140.19 89.7108 148.893 89.6489L174.989 89.5645L201.092 89.6489C209.791 89.6995 218.489 89.8008 227.188 89.9527C218.489 90.099 209.791 90.1974 201.092 90.2481L174.989 90.3409L148.862 90.2481C140.184 90.1974 131.494 90.099 122.79 89.9527Z" fill="#DBDBDB"/>
<path d="M122.79 93.9279C131.489 93.7816 140.19 93.6804 148.893 93.6241L174.989 93.5312L201.092 93.6241C209.791 93.6747 218.489 93.776 227.188 93.9279C218.489 94.0742 209.791 94.1727 201.092 94.2233L174.989 94.3162L148.862 94.2233C140.184 94.1727 131.494 94.0742 122.79 93.9279Z" fill="#DBDBDB"/>
<path d="M217.8 0H126.442V18.3485H217.8V0Z" fill="#A6A6A6"/>
<path d="M269.881 0H217.8V18.3485H269.881V0Z" fill="#A6A6A6"/>
<path d="M217.8 1.90723H126.442V16.4493H217.8V1.90723Z" fill="white"/>
<path d="M132.356 4.89522C139.48 4.79394 146.601 4.72361 153.719 4.68422L175.082 4.6167L196.445 4.68422C203.563 4.71798 210.682 4.78831 217.8 4.89522C210.682 4.9965 203.563 5.06965 196.445 5.11467L175.082 5.17374L153.719 5.11467C146.601 5.07528 139.48 5.00213 132.356 4.89522Z" fill="#DBDBDB"/>
<path d="M132.356 7.748C139.48 7.64672 146.601 7.57639 153.719 7.537L175.082 7.46948L196.445 7.537C203.563 7.57076 210.682 7.6411 217.8 7.748C210.682 7.84928 203.563 7.92242 196.445 7.96744L175.082 8.02652L153.719 7.96744C146.601 7.92805 139.48 7.85491 132.356 7.748Z" fill="#DBDBDB"/>
<path d="M132.356 10.6008C139.48 10.4995 146.601 10.4292 153.719 10.3898L175.082 10.3223L196.445 10.3898C203.563 10.4235 210.682 10.4939 217.8 10.6008C210.682 10.7077 203.563 10.7808 196.445 10.8202L175.082 10.8793L153.719 10.8202C146.601 10.7808 139.48 10.7077 132.356 10.6008Z" fill="#DBDBDB"/>
<path d="M132.356 13.4956C139.48 13.3943 146.601 13.3239 153.719 13.2846L175.082 13.217L196.445 13.2846C203.563 13.3183 210.682 13.3887 217.8 13.4956C210.682 13.6081 203.563 13.6812 196.445 13.715L175.082 13.7741L153.719 13.715C146.601 13.6475 139.48 13.5743 132.356 13.4956Z" fill="#DBDBDB"/>
<path d="M98.5162 46.4027L76.2693 136.584L63.5814 188L51.3394 184.48L64.0273 133.064L86.2742 42.8833L98.5162 46.4027Z" fill="#FCCB05"/>
<path opacity="0.1" d="M98.5162 46.4027L76.2693 136.584L63.5814 188L51.3394 184.48L64.0273 133.064L86.2742 42.8833L98.5162 46.4027Z" fill="black"/>
<path d="M74.9925 136.2L97.2471 46.021L87.5413 43.2326L65.2867 133.411L74.9925 136.2Z" fill="white"/>
<path d="M93.8071 51.2983C92.1487 58.3429 90.4643 65.3762 88.7538 72.3982L83.591 93.4981L78.35 114.598C76.5874 121.62 74.8039 128.636 72.9995 135.647C74.6683 128.597 76.3553 121.564 78.0606 114.547L83.2156 93.4475L88.4644 72.3476C90.227 65.3255 92.0079 58.3091 93.8071 51.2983Z" fill="#DBDBDB"/>
<path d="M91.9062 50.7495C90.2427 57.8053 88.5556 64.8386 86.8451 71.8494L81.6902 92.9493L76.4413 114.049C74.6839 121.071 72.903 128.088 71.0986 135.098C72.7622 128.054 74.4492 121.021 76.1597 113.999L81.3147 92.8986L86.5635 71.7987C88.3262 64.7767 90.1071 57.7603 91.9062 50.7495Z" fill="#DBDBDB"/>
<path d="M90.0053 50.2095C88.3418 57.2596 86.6547 64.2929 84.9442 71.3094L79.7893 92.4092L74.5404 113.509C72.783 120.531 71.0021 127.545 69.1978 134.55C70.8561 127.5 72.5405 120.466 74.251 113.45L79.4138 92.3502L84.6548 71.2503C86.4122 64.2564 88.1957 57.2428 90.0053 50.2095Z" fill="#DBDBDB"/>
<path d="M88.0966 49.6611C86.4383 56.7057 84.7539 63.739 83.0434 70.761L77.8806 91.8609L72.6396 112.961C70.8821 119.983 69.0986 126.996 67.2891 134.002C68.9526 126.957 70.6397 119.924 72.3502 112.902L77.5051 91.8018L82.7539 70.7019C84.5166 63.6799 86.2975 56.6663 88.0966 49.6611Z" fill="#DBDBDB"/>
<path d="M178.015 170.125H271.532V134.997H178.015V170.125Z" fill="#263238"/>
<path d="M112.33 170.125H178.015V134.997H112.33V170.125Z" fill="#263238"/>
<path d="M178.015 166.478H271.532V138.643H178.015V166.478Z" fill="white"/>
<path d="M265.478 160.756C258.177 160.897 250.889 160.995 243.614 161.052L221.751 161.144L199.848 161.052C192.547 161.001 185.246 160.902 177.945 160.756C185.246 160.616 192.547 160.514 199.848 160.452L221.751 160.368L243.614 160.452C250.905 160.514 258.193 160.616 265.478 160.756Z" fill="#DBDBDB"/>
<path d="M265.478 155.287C258.177 155.428 250.889 155.526 243.614 155.582L221.751 155.675L199.848 155.582C192.547 155.532 185.246 155.433 177.945 155.287C185.246 155.146 192.547 155.045 199.848 154.983L221.751 154.899L243.614 154.983C250.905 155.039 258.193 155.141 265.478 155.287Z" fill="#DBDBDB"/>
<path d="M265.478 149.834C258.177 149.975 250.889 150.074 243.614 150.13L221.751 150.223L199.848 150.13C192.547 150.079 185.246 149.981 177.945 149.834C185.246 149.688 192.547 149.587 199.848 149.531L221.751 149.438L243.614 149.531C250.905 149.581 258.193 149.683 265.478 149.834Z" fill="#DBDBDB"/>
<path d="M265.478 144.374C258.177 144.521 250.889 144.619 243.614 144.67L221.751 144.762L199.848 144.67C192.547 144.619 185.246 144.521 177.945 144.374C185.246 144.222 192.547 144.121 199.848 144.07L221.751 143.978L243.614 144.07C250.905 144.121 258.193 144.222 265.478 144.374Z" fill="#DBDBDB"/>
<path d="M293.458 51.3486H121.819V75.2843H293.458V51.3486Z" fill="#C7C7C7"/>
<path d="M203.97 56.2354H137.957V70.6001H203.97V56.2354Z" fill="white"/>
<path d="M281.873 56.2354H219.904V58.455H281.873V56.2354Z" fill="white"/>
<path d="M281.873 62.2109H219.904V64.4306H281.873V62.2109Z" fill="white"/>
<path d="M281.873 68.178H219.904V70.3977H281.873V68.178Z" fill="white"/>
<path d="M260.252 18.3486H133.686V51.2391H260.252V18.3486Z" fill="#FCCB05"/>
<path d="M246.828 18.3486H235.032V51.2391H246.828V18.3486Z" fill="#263238"/>
<path d="M227.297 18.3486H222.721V51.2391H227.297V18.3486Z" fill="#263238"/>
<path d="M37.8462 122.481C42.8134 111.458 51.5041 105.804 61.3134 108.935C71.1227 112.066 72.6246 126.794 65.3184 130.516C58.0123 134.238 50.6906 123.367 46.8263 121.139C42.962 118.911 37.8462 122.481 37.8462 122.481Z" fill="#FCCB05"/>
<path d="M33.0344 151.801C33.0344 150.467 33.1126 149.142 33.1517 147.817C33.2378 145.167 33.3238 142.508 33.4177 139.858C33.5819 135.014 34.0669 130.254 35.9287 125.78C37.5721 121.727 40.3194 118.31 43.8058 115.982C45.1009 115.141 46.4955 114.494 47.9517 114.057C49.2672 112.616 50.945 111.621 52.7781 111.196C55.0471 110.696 57.3803 110.633 59.6696 111.01C59.7557 111.01 59.7479 111.154 59.6696 111.146C57.4858 110.846 55.2687 111.015 53.1458 111.643C52.2398 111.915 51.3618 112.286 50.5252 112.749C49.998 113.057 49.4909 113.404 49.0077 113.787C50.9839 113.347 53.0247 113.37 54.9918 113.855C55.6998 114.04 56.393 114.285 57.0648 114.589C57.6015 114.463 58.1509 114.412 58.6996 114.437C59.4154 114.462 60.1263 114.572 60.8195 114.766C62.2366 115.197 63.5921 115.836 64.8481 116.665C64.9263 116.707 64.8481 116.826 64.7855 116.783C63.557 116.058 62.2405 115.521 60.8743 115.188C60.2107 115.022 59.5358 114.915 58.8561 114.868C58.4809 114.846 58.1049 114.846 57.7297 114.868C60.5205 116.257 62.7632 118.671 64.058 121.679C64.058 121.763 63.9798 121.831 63.9485 121.746C63.1738 120 62.0431 118.466 60.641 117.259C59.2389 116.052 57.6018 115.202 55.8523 114.775C55.6333 114.716 55.4142 114.682 55.1952 114.631C55.2734 114.977 55.2578 115.366 55.3047 115.703C55.3673 116.235 55.4534 116.767 55.5472 117.298C55.7492 118.389 56.0104 119.465 56.3295 120.522C56.6622 121.593 57.0594 122.639 57.5185 123.654C57.9592 124.725 58.5158 125.736 59.1768 126.667C59.2316 126.743 59.1221 126.835 59.0751 126.751C58.4806 125.755 57.8001 124.835 57.2603 123.805C56.7479 122.818 56.3034 121.791 55.9305 120.733C55.5594 119.657 55.269 118.551 55.0622 117.425C54.9527 116.834 54.8667 116.235 54.8041 115.636C54.7366 115.278 54.7155 114.911 54.7415 114.547C53.5896 114.354 52.4193 114.326 51.2606 114.462C51.6986 117.096 52.1679 119.83 53.529 122.117C53.576 122.193 53.4508 122.261 53.4117 122.185C52.7761 120.971 52.2143 119.714 51.7299 118.421C51.284 117.166 51.0023 115.851 50.8929 114.513C48.8711 114.803 46.9195 115.508 45.1434 116.589C41.7945 118.687 39.1219 121.842 37.4853 125.628C35.7588 129.703 34.7965 134.106 34.6536 138.584C34.3251 144.213 34.2625 149.876 33.7384 155.464C33.7384 155.827 33.1673 155.953 33.1048 155.54C32.9694 154.299 32.9459 153.047 33.0344 151.801Z" fill="#263238"/>
<path d="M44.5176 115.104C44.8424 114.675 45.2216 114.297 45.6441 113.982C46.0508 113.619 46.4263 113.264 46.9035 112.943C47.7655 112.307 48.7199 111.831 49.7273 111.534C49.8056 111.534 49.8369 111.652 49.7273 111.669C48.7124 111.942 47.763 112.446 46.9426 113.146C46.528 113.475 46.1603 113.83 45.7379 114.193C45.3933 114.582 45.0133 114.932 44.6037 115.239C44.5567 115.281 44.4629 115.18 44.5176 115.104Z" fill="#263238"/>
<path d="M60.3668 119.096C61.1897 120.125 61.95 121.21 62.6431 122.345C63.3245 123.488 63.8934 124.704 64.3406 125.975C64.3406 125.975 64.3406 126.034 64.278 125.975C63.1437 123.574 61.8028 121.293 60.2729 119.163C60.2182 119.121 60.312 118.995 60.3668 119.096Z" fill="#263238"/>
<path d="M49.6811 118.007C49.7863 118.695 49.9757 119.365 50.2444 119.999C50.517 120.613 50.8334 121.203 51.1909 121.763C51.1909 121.763 51.1909 121.839 51.1361 121.805C50.2839 120.743 49.7398 119.434 49.5716 118.041C49.5169 117.948 49.6655 117.915 49.6811 118.007Z" fill="#263238"/>
<path d="M33.7313 122.751C33.7313 122.751 26.6912 113.214 13.1271 116.59C0.235826 119.839 -5.73266 145.328 7.27598 148.383C20.2846 151.438 18.0161 127.815 22.7643 123.806C26.2844 120.869 31.2986 121.527 33.7313 122.751Z" fill="#FCCB05"/>
<path d="M2.63748 130.532C3.52238 129.695 4.45792 128.923 5.4379 128.22C6.35696 127.537 7.36018 126.998 8.41823 126.616C8.94283 125.745 9.5342 124.924 10.1861 124.16C11.39 122.766 12.7825 121.576 14.3163 120.632H13.9096C13.1899 120.632 12.4702 120.632 11.7506 120.632C10.3035 120.732 8.8854 121.115 7.56559 121.763C7.48737 121.763 7.43261 121.67 7.51084 121.636C8.8491 121.009 10.2511 120.553 11.688 120.278C12.3872 120.139 13.0969 120.071 13.8079 120.075C14.1912 120.075 14.5901 120.075 14.9499 120.151H15.169C16.4132 119.473 17.7256 118.952 19.0802 118.598L18.7047 118.488C18.0308 118.333 17.3491 118.22 16.663 118.151C15.3104 117.979 13.9425 118.002 12.5954 118.218C12.5172 118.218 12.4937 118.092 12.5954 118.075C13.9578 117.898 15.331 117.839 16.7022 117.898C17.8535 117.937 18.9984 118.098 20.1205 118.379C20.9367 118.214 21.7628 118.112 22.5924 118.075C27.2859 117.855 32.4877 119.763 35.3977 123.983C38.3076 128.203 38.8865 133.79 39.4027 138.862C40.1923 145.924 40.3652 153.051 39.919 160.148C39.919 160.57 39.3402 160.486 39.3324 160.089C39.1524 154.071 38.9569 148.054 38.4249 142.053C38.1746 139.276 37.9008 136.491 37.4706 133.739C37.1642 131.368 36.5342 129.058 35.6011 126.886C34.5962 124.646 32.9947 122.78 31.0015 121.527C29.0045 120.299 26.778 119.569 24.4854 119.391C22.4369 119.207 20.3744 119.413 18.3918 119.999C18.4504 120.43 18.4504 120.868 18.3918 121.299C18.3434 121.843 18.2438 122.38 18.0945 122.902C17.9432 123.392 17.7521 123.867 17.5235 124.32C17.2732 124.827 16.9603 125.274 16.6787 125.755C16.6318 125.831 16.5222 125.755 16.5692 125.671C17.1264 124.811 17.4882 123.823 17.6252 122.784C17.7112 122.291 17.7661 121.792 17.7895 121.29C17.7895 120.919 17.7895 120.531 17.7895 120.159C15.6364 120.873 13.6274 122.018 11.8679 123.535C11.5315 123.822 11.2187 124.126 10.9058 124.43C11.3512 124.881 11.738 125.395 12.0556 125.958C12.545 126.688 12.9718 127.465 13.3307 128.279C13.9584 129.898 14.382 131.602 14.5901 133.343C14.5853 133.358 14.5763 133.37 14.5644 133.38C14.5525 133.389 14.5382 133.394 14.5236 133.394C14.509 133.394 14.4947 133.389 14.4828 133.38C14.4709 133.37 14.4619 133.358 14.4571 133.343C14.2009 131.647 13.6714 130.013 12.8926 128.515C12.5334 127.774 12.131 127.058 11.688 126.371C11.4611 126.017 11.2265 125.671 10.9762 125.333C10.8432 125.156 10.6946 124.97 10.5694 124.776C8.97283 126.462 7.66934 128.443 6.72078 130.625C7.35339 131.358 7.88074 132.188 8.28525 133.089C8.79543 134.053 9.2424 135.054 9.62288 136.086C10.2796 138.036 10.8205 140.029 11.2421 142.053C11.2421 142.146 11.1326 142.171 11.117 142.053C10.7046 140.005 10.0582 138.021 9.19265 136.145C8.78589 135.233 8.35566 134.33 7.90978 133.436C7.43705 132.621 7.01123 131.775 6.63473 130.904C5.72453 133.028 5.19376 135.319 5.07025 137.655C5.07025 137.748 4.92944 137.731 4.93727 137.655C5.18643 133.974 6.23125 130.408 7.988 127.241C7.15883 127.62 6.32183 127.992 5.52395 128.456C4.50221 129.038 3.5533 129.759 2.70006 130.6C2.66095 130.701 2.58273 130.591 2.63748 130.532Z" fill="#263238"/>
<path d="M12.5954 131.073C13.0022 132.516 13.5185 133.925 13.8861 135.385C14.2596 136.786 14.4595 138.233 14.4806 139.69C14.4806 139.732 14.4259 139.732 14.418 139.69C14.0525 136.765 13.3996 133.89 12.4703 131.115C12.4677 131.106 12.4668 131.097 12.4675 131.087C12.4683 131.078 12.4708 131.069 12.4748 131.061C12.4788 131.053 12.4842 131.045 12.4908 131.039C12.4974 131.033 12.5051 131.029 12.5133 131.026C12.5215 131.023 12.5302 131.022 12.5387 131.023C12.5473 131.024 12.5556 131.027 12.5633 131.031C12.5709 131.035 12.5777 131.041 12.5832 131.048C12.5887 131.055 12.5929 131.064 12.5954 131.073Z" fill="#263238"/>
<path d="M3.99858 127.486C4.52987 126.929 5.13651 126.462 5.79774 126.101C6.46762 125.77 7.16407 125.504 7.87849 125.308C7.95672 125.308 7.98018 125.426 7.87849 125.443C7.17683 125.639 6.50315 125.937 5.87596 126.329C5.23531 126.691 4.61849 127.1 4.02987 127.553C4.02587 127.559 4.02057 127.563 4.01448 127.566C4.00839 127.569 4.00171 127.57 3.99507 127.57C3.98843 127.569 3.98206 127.567 3.97655 127.563C3.97104 127.559 3.96658 127.553 3.9636 127.547C3.96062 127.54 3.95921 127.533 3.95951 127.526C3.95981 127.519 3.96181 127.512 3.96531 127.506C3.96882 127.499 3.97371 127.494 3.97954 127.491C3.98536 127.487 3.99192 127.486 3.99858 127.486Z" fill="#263238"/>
<path d="M27.043 110.015C27.043 110.015 25.7523 92.8817 13.9405 87.3283C4.08425 82.6863 -1.5557 94.6372 5.41406 101.955C11.0462 107.871 20.0889 105.204 27.043 110.015Z" fill="#FCCB05"/>
<path d="M7.59592 90.6451C9.39344 91.4263 11.1462 92.3225 12.8447 93.329C14.26 94.2068 15.6214 95.1822 16.9202 96.2492C16.7247 95.8103 16.5526 95.3546 16.357 94.9326C16.0441 94.2743 15.7156 93.6244 15.3557 92.9998C14.6278 91.7057 13.7527 90.5148 12.7509 89.455C12.6961 89.396 12.7509 89.2947 12.8447 89.3622C13.8442 90.4232 14.76 91.5722 15.5826 92.7973C15.9908 93.4215 16.3669 94.0696 16.709 94.7385C17.0504 95.3531 17.3136 96.0145 17.4912 96.705C17.4912 96.7472 17.5773 96.7725 17.6242 96.8147C19.6861 98.584 21.5735 100.578 23.2564 102.765C23.2564 102.596 23.1938 102.427 23.1547 102.275C22.9356 101.431 22.6931 100.587 22.435 99.7855C21.9308 98.0271 21.2155 96.3473 20.3073 94.7891C20.299 94.7734 20.2968 94.7548 20.3012 94.7374C20.3056 94.72 20.3163 94.7052 20.3308 94.6963C20.3453 94.6873 20.3625 94.6849 20.3787 94.6897C20.3948 94.6944 20.4085 94.7059 20.4168 94.7216C21.3591 96.2746 22.1956 97.8994 22.92 99.583C23.2386 100.405 23.5 101.251 23.7022 102.115C23.8757 102.665 24.0066 103.23 24.0934 103.803C24.6018 104.503 25.1103 105.212 25.5874 105.947C30.6563 113.728 33.1986 123.147 33.8088 132.566C33.9861 135.375 34.0305 138.192 33.9417 141.006C33.9196 143.835 33.6868 146.658 33.2456 149.446C33.2456 149.623 32.9561 149.564 32.9639 149.396C33.0187 146.914 33.2612 144.45 33.3003 141.977C33.3452 139.519 33.2747 137.059 33.0891 134.609C32.719 129.662 31.8562 124.772 30.5155 120.025C29.1316 115.17 27.1 110.558 24.4845 106.335C23.9838 106.225 23.491 106.082 22.9982 105.947L21.2382 105.44C20.1043 105.122 19.0015 104.687 17.9449 104.141C17.8667 104.098 17.9449 103.972 18.0153 104.014C19.0557 104.628 20.1851 105.048 21.3555 105.255C22.2786 105.449 23.2407 105.584 24.1638 105.812C23.3133 104.463 22.3968 103.164 21.4181 101.921C19.1681 102.136 16.9008 101.95 14.7065 101.372C13.5387 101.075 12.3912 100.692 11.2724 100.224C10.0834 99.7265 8.92572 99.1019 7.7993 98.5364C7.71325 98.5364 7.7993 98.3592 7.85406 98.4098C9.9667 99.655 12.2736 100.47 14.6595 100.815C16.7653 101.181 18.8942 101.37 21.027 101.381C20.19 100.343 19.3217 99.3382 18.3986 98.3845C15.2697 95.1942 11.6166 92.274 7.53334 90.7464C7.47858 90.7464 7.51769 90.6113 7.59592 90.6451Z" fill="#263238"/>
<path d="M17.2022 90.6957C17.7324 91.4216 18.2159 92.1858 18.6494 92.9829C19.0933 93.8211 19.4426 94.7137 19.6898 95.6415C19.6898 95.6415 19.6898 95.6837 19.6428 95.6415C19.2517 94.7975 18.9153 93.9535 18.5164 93.1095C18.1265 92.2857 17.6543 91.5103 17.1084 90.797C17.0536 90.721 17.1475 90.6282 17.2022 90.6957Z" fill="#263238"/>
<path d="M36.218 106.926C36.2884 107.668 38.0015 100.705 47.9516 94.5273C57.0178 88.9147 67.8362 74.322 58.9499 65.0972C51.8159 57.6616 32.9092 73.8832 36.218 106.926Z" fill="#FCCB05"/>
<path d="M29.3509 146.847C29.4886 139.604 30.011 132.376 30.9154 125.198C31.7013 118.589 33.1142 112.084 35.1317 105.786C35.9139 103.524 36.6961 101.296 37.6426 99.1019C37.5945 98.2581 37.6076 97.4115 37.6818 96.5699C37.7287 95.4727 37.8226 94.384 37.9164 93.2868C38.0103 92.1896 38.112 91.1008 38.2371 90.0121C38.3623 88.9233 38.5735 87.8345 38.6126 86.7458C38.6126 86.7369 38.6142 86.7282 38.6174 86.72C38.6205 86.7118 38.6251 86.7043 38.631 86.698C38.6368 86.6918 38.6437 86.6868 38.6512 86.6834C38.6588 86.68 38.667 86.6783 38.6752 86.6783C38.6834 86.6783 38.6916 86.68 38.6991 86.6834C38.7067 86.6868 38.7136 86.6918 38.7195 86.698C38.7253 86.7043 38.7299 86.7118 38.733 86.72C38.7362 86.7282 38.7378 86.7369 38.7378 86.7458C38.5399 87.8911 38.4196 89.0504 38.378 90.2146C38.3075 91.2696 38.245 92.333 38.2215 93.388C38.198 94.443 38.2215 95.5065 38.2215 96.5699C38.2215 96.9497 38.2215 97.3548 38.2215 97.7684C39.1602 95.6246 40.1693 93.5484 41.2566 91.4637C40.5839 86.999 41.46 82.3317 42.3048 77.9598C42.3048 77.8754 42.4456 77.9092 42.43 78.002C42.0155 80.2824 41.7955 82.599 41.7729 84.9228C41.7729 86.7542 41.812 88.5857 41.8198 90.4172C42.0623 89.9783 42.297 89.5732 42.5395 89.109C43.838 86.8246 45.2199 84.5964 46.6853 82.4245C46.5703 81.3645 46.6046 80.2917 46.787 79.2427C46.9479 78.0662 47.1884 76.904 47.5067 75.7654C47.8274 74.626 48.1951 73.5035 48.6175 72.3894C49.0399 71.2754 49.6187 70.1782 50.0411 69.0134C50.0447 69.0051 50.0498 68.9977 50.0561 68.9915C50.0624 68.9853 50.0697 68.9805 50.0777 68.9773C50.0857 68.9742 50.0942 68.9728 50.1027 68.9732C50.1111 68.9736 50.1195 68.9758 50.1272 68.9797C50.1349 68.9836 50.1418 68.989 50.1476 68.9958C50.1533 69.0026 50.1578 69.0105 50.1607 69.0191C50.1636 69.0277 50.1649 69.0369 50.1645 69.0461C50.1641 69.0552 50.1621 69.0642 50.1585 69.0725C49.624 70.143 49.2041 71.2756 48.9069 72.4485C48.5832 73.5558 48.322 74.6832 48.1247 75.8245C47.9135 76.9554 47.7414 78.0948 47.5927 79.2005C47.491 79.9601 47.4285 80.745 47.3111 81.513C49.4455 78.4137 51.7798 75.4806 54.2965 72.7355C54.3097 72.7287 54.3244 72.7265 54.3388 72.7291C54.3531 72.7318 54.3664 72.7392 54.3766 72.7503C54.3869 72.7614 54.3938 72.7757 54.3963 72.7912C54.3987 72.8066 54.3967 72.8226 54.3904 72.8367C50.5793 77.4507 47.1748 82.4378 44.2213 87.7333L43.9006 88.3325C44.456 87.9612 45.0817 87.6658 45.598 87.3535C46.568 86.7796 47.538 86.1972 48.5158 85.6655C49.4936 85.1338 50.401 84.5598 51.3397 83.9775C51.8247 83.6905 52.3018 83.3867 52.7946 83.1335C53.3817 82.8444 53.9467 82.5058 54.4843 82.1207C54.5625 82.0616 54.6407 82.1882 54.5625 82.2304C53.6003 82.8043 52.7555 83.6483 51.8246 84.2898C50.8938 84.9312 49.9394 85.5473 48.9773 86.1297C47.2016 87.2015 45.2695 87.9696 43.5016 89.0752C42.2891 91.3624 41.1549 93.7087 40.1458 96.0973C41.2018 95.363 42.2892 94.6709 43.3843 94.0042C44.0961 93.5822 44.8001 93.1601 45.5198 92.7466C46.2347 92.3963 46.9094 91.9573 47.5302 91.4384C47.5927 91.3793 47.6788 91.4806 47.6162 91.5397C46.4572 92.6711 45.1692 93.6382 43.7832 94.4177C42.5004 95.2617 41.2097 96.0129 39.872 96.7134C38.8082 99.2454 37.8382 101.777 36.9856 104.419C32.7849 117.256 31.2361 130.878 30.5008 144.416C30.2818 148.45 30.1723 152.485 30.1253 156.519C30.0784 160.553 30.2739 164.587 30.2661 168.622C30.2661 168.74 30.0862 168.765 30.0706 168.622C29.6169 165.043 29.5386 161.406 29.3978 157.802C29.257 154.198 29.2805 150.501 29.3509 146.847Z" fill="#263238"/>
<path d="M47.4906 88.7291C49.3108 87.8547 51.0817 86.8655 52.7941 85.7666C54.5244 84.7096 56.2032 83.5574 57.8239 82.3147C57.8239 82.3147 57.8865 82.3147 57.8239 82.3653C56.2935 83.701 54.6781 84.9194 52.9897 86.0114C51.2216 87.08 49.3927 88.0272 47.514 88.8472C47.4749 88.881 47.4123 88.7628 47.4906 88.7291Z" fill="#263238"/>
<path d="M44.5964 74.2125C44.745 73.5879 44.925 72.9718 45.1205 72.3641C45.1205 72.3641 45.1205 72.3219 45.1205 72.2966C45.2457 71.9421 45.3787 71.6045 45.5116 71.2585L45.5586 71.1319L45.629 70.9377L45.5351 71.2922C45.5205 71.3608 45.5022 71.4285 45.4803 71.4948C44.8361 73.8929 44.355 76.3385 44.041 78.8122C44.041 78.8882 43.9159 78.8966 43.9237 78.8122C44.0112 77.2593 44.2364 75.719 44.5964 74.2125Z" fill="#263238"/>
<path d="M18.8052 149.438L19.517 158.544L21.6995 186.32H45.0571L47.2318 158.544L47.9436 149.438H18.8052Z" fill="#455A64"/>
<path d="M18.8052 149.438L19.517 158.544H47.2318L47.9436 149.438H18.8052Z" fill="#263238"/>
<path d="M16.5135 154.51H50.2358V145.775H16.5135V154.51Z" fill="#455A64"/>
</svg>
