<svg width="146" height="42" viewBox="0 0 146 42" fill="none" xmlns="http://www.w3.org/2000/svg">
<path d="M13.2026 29.976C11.8906 29.976 10.7706 29.664 9.84263 29.04C8.91463 28.416 8.29863 27.56 7.99463 26.472L10.5146 25.848L10.7786 25.896C10.9226 26.408 11.2266 26.816 11.6906 27.12C12.1706 27.408 12.7226 27.552 13.3466 27.552C13.9546 27.552 14.4666 27.424 14.8826 27.168C15.3146 26.896 15.5306 26.552 15.5306 26.136C15.5306 25.784 15.4026 25.504 15.1466 25.296C14.9066 25.072 14.5306 24.904 14.0186 24.792L11.7386 24.288C10.6186 24.032 9.76263 23.608 9.17063 23.016C8.59463 22.408 8.30663 21.68 8.30663 20.832C8.30663 20.096 8.50663 19.456 8.90663 18.912C9.32263 18.352 9.89063 17.92 10.6106 17.616C11.3306 17.296 12.1546 17.136 13.0826 17.136C14.3466 17.136 15.4186 17.448 16.2986 18.072C17.1786 18.696 17.7626 19.568 18.0506 20.688L15.6506 21.192L15.3866 21.144C15.2586 20.664 14.9626 20.28 14.4986 19.992C14.0506 19.704 13.5386 19.56 12.9626 19.56C12.4186 19.56 11.9546 19.672 11.5706 19.896C11.2026 20.104 11.0186 20.392 11.0186 20.76C11.0186 21.032 11.1306 21.28 11.3546 21.504C11.5786 21.712 11.9306 21.864 12.4106 21.96L14.6906 22.488C15.8746 22.76 16.7626 23.176 17.3546 23.736C17.9626 24.28 18.2666 25.024 18.2666 25.968C18.2666 26.784 18.0426 27.496 17.5946 28.104C17.1626 28.696 16.5626 29.16 15.7946 29.496C15.0426 29.816 14.1786 29.976 13.2026 29.976Z" fill="#202831"/>
<path d="M19.2105 29.976V13.116L21.8985 12L21.9705 12.192V20.592L21.1065 20.544C21.3625 19.84 21.7305 19.24 22.2105 18.744C22.6905 18.232 23.2505 17.84 23.8905 17.568C24.5305 17.28 25.2265 17.136 25.9785 17.136C26.8425 17.136 27.6185 17.328 28.3065 17.712C29.0105 18.08 29.5625 18.632 29.9625 19.368C30.3785 20.088 30.5865 20.992 30.5865 22.08V29.976H27.8265V22.92C27.8265 22.152 27.7225 21.528 27.5145 21.048C27.3065 20.568 27.0025 20.216 26.6025 19.992C26.2185 19.768 25.7705 19.656 25.2585 19.656C24.7785 19.656 24.2825 19.776 23.7705 20.016C23.2745 20.256 22.8505 20.656 22.4985 21.216C22.1465 21.776 21.9705 22.536 21.9705 23.496V29.976H19.2105Z" fill="#202831"/>
<path d="M37.6326 29.976C36.4166 29.976 35.3446 29.704 34.4166 29.16C33.4886 28.616 32.7606 27.864 32.2326 26.904C31.7046 25.928 31.4406 24.808 31.4406 23.544C31.4406 22.296 31.7046 21.192 32.2326 20.232C32.7606 19.256 33.4886 18.496 34.4166 17.952C35.3446 17.408 36.4166 17.136 37.6326 17.136C38.8646 17.136 39.9446 17.408 40.8726 17.952C41.8006 18.496 42.5286 19.256 43.0566 20.232C43.5846 21.192 43.8486 22.296 43.8486 23.544C43.8486 24.808 43.5846 25.928 43.0566 26.904C42.5286 27.864 41.8006 28.616 40.8726 29.16C39.9446 29.704 38.8646 29.976 37.6326 29.976ZM37.6326 27.48C38.3366 27.48 38.9446 27.32 39.4566 27C39.9686 26.68 40.3686 26.224 40.6566 25.632C40.9446 25.04 41.0886 24.352 41.0886 23.568C41.0886 22.752 40.9446 22.056 40.6566 21.48C40.3686 20.888 39.9686 20.432 39.4566 20.112C38.9446 19.792 38.3366 19.632 37.6326 19.632C36.9446 19.632 36.3446 19.792 35.8326 20.112C35.3206 20.432 34.9206 20.888 34.6326 21.48C34.3446 22.056 34.2006 22.744 34.2006 23.544C34.2006 24.344 34.3446 25.04 34.6326 25.632C34.9206 26.224 35.3206 26.68 35.8326 27C36.3446 27.32 36.9446 27.48 37.6326 27.48Z" fill="#202831"/>
<path d="M56.0603 17.496V29.976H53.4923V26.52L54.1883 26.568C53.9323 27.272 53.5643 27.88 53.0843 28.392C52.6043 28.888 52.0443 29.28 51.4043 29.568C50.7643 29.84 50.0683 29.976 49.3163 29.976C48.4523 29.976 47.6683 29.792 46.9643 29.424C46.2763 29.04 45.7243 28.48 45.3083 27.744C44.8923 27.008 44.6843 26.096 44.6843 25.008V17.496H47.4443V24.192C47.4443 24.944 47.5483 25.56 47.7563 26.04C47.9803 26.52 48.2843 26.88 48.6683 27.12C49.0683 27.344 49.5243 27.456 50.0363 27.456C50.5163 27.456 51.0043 27.336 51.5003 27.096C52.0123 26.84 52.4363 26.432 52.7723 25.872C53.1243 25.312 53.3003 24.552 53.3003 23.592V17.496H56.0603Z" fill="#202831"/>
<path d="M63.2307 29.976C62.0467 29.976 61.1027 29.608 60.3987 28.872C59.6947 28.12 59.3427 27.112 59.3427 25.848V15.116L62.1027 14.352V25.56C62.1027 26.2 62.2627 26.68 62.5827 27C62.9187 27.32 63.3987 27.48 64.0227 27.48H65.2707L65.3907 27.744V29.976H63.2307ZM57.2787 19.968V17.496H65.3907V19.968H57.2787Z" fill="#202831"/>
<path d="M73.0621 29.976C71.7501 29.976 70.6301 29.664 69.7021 29.04C68.7741 28.416 68.1581 27.56 67.8541 26.472L70.3741 25.848L70.6381 25.896C70.7821 26.408 71.0861 26.816 71.5501 27.12C72.0301 27.408 72.5821 27.552 73.2061 27.552C73.8141 27.552 74.3261 27.424 74.7421 27.168C75.1741 26.896 75.3901 26.552 75.3901 26.136C75.3901 25.784 75.2621 25.504 75.0061 25.296C74.7661 25.072 74.3901 24.904 73.8781 24.792L71.5981 24.288C70.4781 24.032 69.6221 23.608 69.0301 23.016C68.4541 22.408 68.1661 21.68 68.1661 20.832C68.1661 20.096 68.3661 19.456 68.7661 18.912C69.1821 18.352 69.7501 17.92 70.4701 17.616C71.1901 17.296 72.0141 17.136 72.9421 17.136C74.2061 17.136 75.2781 17.448 76.1581 18.072C77.0381 18.696 77.6221 19.568 77.9101 20.688L75.5101 21.192L75.2461 21.144C75.1181 20.664 74.8221 20.28 74.3581 19.992C73.9101 19.704 73.3981 19.56 72.8221 19.56C72.2781 19.56 71.8141 19.672 71.4301 19.896C71.0621 20.104 70.8781 20.392 70.8781 20.76C70.8781 21.032 70.9901 21.28 71.2141 21.504C71.4381 21.712 71.7901 21.864 72.2701 21.96L74.5501 22.488C75.7341 22.76 76.6221 23.176 77.2141 23.736C77.8221 24.28 78.1261 25.024 78.1261 25.968C78.1261 26.784 77.9021 27.496 77.4541 28.104C77.0221 28.696 76.4221 29.16 75.6541 29.496C74.9021 29.816 74.0381 29.976 73.0621 29.976Z" fill="#202831"/>
<path d="M83.4492 29.956C82.2652 29.956 81.3212 29.588 80.6172 28.852C79.9132 28.1 79.5612 27.092 79.5612 25.828V15.116L82.3212 14.352V25.54C82.3212 26.18 82.4812 26.66 82.8012 26.98C83.1372 27.3 83.6172 27.46 84.2412 27.46H85.4892L85.6092 27.724V29.956H83.4492ZM77.4972 19.968V17.496H85.6092V19.968H77.4972Z" fill="#202831"/>
<path d="M90.4829 29.956C89.6509 29.956 88.9069 29.796 88.2509 29.476C87.6109 29.156 87.1069 28.708 86.7389 28.132C86.3709 27.556 86.1869 26.9 86.1869 26.164C86.1869 25.028 86.5789 24.124 87.3629 23.452C88.1469 22.764 89.2749 22.364 90.7469 22.252L95.4509 21.868V24.148L91.1549 24.508C90.3869 24.572 89.8349 24.732 89.4989 24.988C89.1629 25.244 88.9949 25.588 88.9949 26.02C88.9949 26.452 89.1869 26.804 89.5709 27.076C89.9549 27.348 90.4429 27.484 91.0349 27.484C91.6589 27.484 92.2189 27.332 92.7149 27.028C93.2269 26.708 93.6349 26.3 93.9389 25.804C94.2429 25.308 94.3949 24.772 94.3949 24.196V22.204C94.3949 21.436 94.1389 20.804 93.6269 20.308C93.2869 19.968 92.4429 19.968 91.6109 19.968C90.9069 19.968 89.6869 19.968 89.1869 19.968C88.6869 19.968 88.6869 19.968 88.2996 19.968H85.6092V17.496C86.1869 17.496 87.1709 17.496 88.1789 17.496C89.1869 17.496 90.2589 17.496 91.6349 17.496C93.3469 17.496 94.6829 17.612 95.6429 18.604C96.6029 19.58 97.0829 20.964 97.0829 22.756V29.9359H94.6349V26.068L95.6189 26.212C95.4269 26.9 95.0829 27.532 94.5869 28.108C94.0909 28.668 93.4909 29.116 92.7869 29.452C92.0989 29.788 91.3309 29.956 90.4829 29.956Z" fill="#202831"/>
<path d="M98.5691 29.956V17.496H101.161V20.592L100.465 20.544C100.801 19.6 101.361 18.856 102.145 18.312C102.929 17.768 103.825 17.496 104.833 17.496H106.009V19.968H104.425C103.801 19.968 103.257 20.112 102.793 20.4C102.329 20.672 101.969 21.064 101.713 21.576C101.457 22.088 101.329 22.696 101.329 23.4V29.956H98.5691Z" fill="#202831"/>
<path d="M111.191 29.956C110.007 29.956 109.063 29.588 108.359 28.852C107.655 28.1 107.303 27.092 107.303 25.828V15.616L110.063 14.352V25.54C110.063 26.18 110.223 26.66 110.543 26.98C110.879 27.3 111.359 27.46 111.983 27.46H113.231L113.351 27.724L112.702 29.956H111.191ZM105.239 19.968V17.496H113.351V19.968H105.239Z" fill="#202831"/>
<path d="M118.351 17.4975H120.726L122.695 29.9761H118.351L118.351 17.4975Z" fill="#F02828"/>
<path d="M121.283 15.2527H123.912L126.366 29.9761H123.737L121.283 15.2527Z" fill="#FCCB05"/>
<path d="M124.552 14.0317H135.09L137.984 29.9761H127.446L124.552 14.0317Z" fill="#2D3237"/>
</svg>
