<svg width="42" height="41" viewBox="0 0 42 41" fill="none" xmlns="http://www.w3.org/2000/svg">
<path d="M24.5608 28.8965C24.3473 28.7826 24.1402 28.6583 23.9396 28.5234C22.6537 27.6588 21.8002 26.4726 21.3789 24.965L24.8708 24.1003L25.2366 24.1668C25.4362 24.8763 25.8574 25.4417 26.5004 25.8629C27.1655 26.262 27.9304 26.4615 28.795 26.4615C29.6375 26.4615 30.347 26.2841 30.9234 25.9294C31.5221 25.5525 31.8214 25.0759 31.8214 24.4994C31.8214 24.0116 31.644 23.6237 31.2893 23.3354C30.9567 23.025 30.4357 22.7923 29.7262 22.6371L26.5669 21.9387C25.0149 21.5839 23.8288 20.9964 23.0085 20.1761C22.2103 19.3336 21.8112 18.3248 21.8112 17.1498C21.8112 16.1299 22.0884 15.2431 22.6426 14.4893C23.1098 13.8604 23.7153 13.348 24.4591 12.9521H14.874L17.7677 28.8965H24.5608Z" fill="#202831"/>
<path d="M32.7209 28.8965H33.6858L33.5852 28.3421C33.3204 28.5447 33.0323 28.7295 32.7209 28.8965Z" fill="#202831"/>
<path d="M32.043 19.8446C31.6192 19.6927 31.1573 19.5593 30.6574 19.4445L27.4981 18.7128C26.8329 18.5798 26.3452 18.3692 26.0348 18.0809C25.7244 17.7706 25.5692 17.4269 25.5692 17.05C25.5692 16.5401 25.8242 16.141 26.3341 15.8528C26.8662 15.5424 27.5091 15.3872 28.2629 15.3872C29.0611 15.3872 29.7706 15.5867 30.3913 15.9858C31.0343 16.3849 31.4445 16.917 31.6218 17.5821L31.6327 17.5841L32.043 19.8446Z" fill="#202831"/>
<path d="M11.6047 14.1732H14.2337L16.6882 28.8965H14.0593L11.6047 14.1732Z" fill="#FCCB05"/>
<path d="M8.67285 16.4179H11.0484L13.0172 28.8965H8.67285V16.4179Z" fill="#F02828"/>
</svg>
