<svg width="257" height="221" viewBox="0 0 257 221" fill="none" xmlns="http://www.w3.org/2000/svg">
<path d="M148.542 1H1V202.925H148.542V1Z" fill="white" stroke="#263238" stroke-width="0.75" stroke-linecap="round" stroke-linejoin="round"/>
<path d="M148.542 1H1V13.048H148.542V1Z" fill="#263238" stroke="#263238" stroke-width="0.75" stroke-linecap="round" stroke-linejoin="round"/>
<path d="M30.1419 141.833H5.20264V198.944H30.1419V141.833Z" fill="#F02828"/>
<path d="M57.3372 141.833H32.3979V198.944H57.3372V141.833Z" fill="#F02828"/>
<path d="M86.2352 141.833H61.2959V198.944H86.2352V141.833Z" fill="#F02828"/>
<path d="M115.124 141.833H90.1851V198.944H115.124V141.833Z" fill="#F02828"/>
<path d="M144.722 141.833H119.783V198.944H144.722V141.833Z" fill="white" stroke="#263238" stroke-width="0.75" stroke-linecap="round" stroke-linejoin="round"/>
<path d="M144.323 5.76318H5.21094V19.6039H144.323V5.76318Z" fill="#F02828"/>
<path opacity="0.6" d="M144.323 5.76318H5.21094V19.6039H144.323V5.76318Z" fill="white"/>
<path d="M142.368 8.45215H7.71094V14.5772H142.368V8.45215Z" fill="white"/>
<path d="M142.36 8.45215H127.113V14.5772H142.36V8.45215Z" fill="#263238" stroke="#263238" stroke-width="0.75" stroke-linecap="round" stroke-linejoin="round"/>
<path d="M67.1272 32.0121H38.6205C38.3289 32.0121 38.0493 31.8871 37.8431 31.6646C37.6368 31.4422 37.521 31.1404 37.521 30.8258C37.521 30.5111 37.6368 30.2094 37.8431 29.9869C38.0493 29.7644 38.3289 29.6394 38.6205 29.6394H67.1272C67.4188 29.6394 67.6985 29.7644 67.9047 29.9869C68.1109 30.2094 68.2268 30.5111 68.2268 30.8258C68.2268 31.1404 68.1109 31.4422 67.9047 31.6646C67.6985 31.8871 67.4188 32.0121 67.1272 32.0121Z" fill="#263238"/>
<path d="M67.1275 40.2816H38.6208C38.469 40.2958 38.3162 40.2757 38.1719 40.2227C38.0277 40.1698 37.8953 40.085 37.783 39.9739C37.6707 39.8627 37.5811 39.7276 37.5197 39.5772C37.4584 39.4267 37.4268 39.2641 37.4268 39.0997C37.4268 38.9353 37.4584 38.7727 37.5197 38.6222C37.5811 38.4717 37.6707 38.3366 37.783 38.2255C37.8953 38.1143 38.0277 38.0296 38.1719 37.9766C38.3162 37.9236 38.469 37.9036 38.6208 37.9177H67.1275C67.4017 37.9433 67.6571 38.0788 67.8432 38.2977C68.0293 38.5165 68.1325 38.8027 68.1325 39.0997C68.1325 39.3967 68.0293 39.6828 67.8432 39.9017C67.6571 40.1205 67.4017 40.2561 67.1275 40.2816Z" fill="#263238"/>
<path d="M67.1272 48.5595H38.6205C38.3289 48.5595 38.0493 48.4345 37.8431 48.212C37.6368 47.9895 37.521 47.6877 37.521 47.3731C37.521 47.0585 37.6368 46.7567 37.8431 46.5342C38.0493 46.3118 38.3289 46.1868 38.6205 46.1868H67.1272C67.4188 46.1868 67.6985 46.3118 67.9047 46.5342C68.1109 46.7567 68.2268 47.0585 68.2268 47.3731C68.2268 47.6877 68.1109 47.9895 67.9047 48.212C67.6985 48.4345 67.4188 48.5595 67.1272 48.5595Z" fill="#263238"/>
<path d="M67.1275 56.829H7.96398C7.68975 56.8035 7.43437 56.6679 7.24829 56.449C7.06222 56.2302 6.95898 55.944 6.95898 55.647C6.95898 55.3501 7.06222 55.0639 7.24829 54.845C7.43437 54.6262 7.68975 54.4906 7.96398 54.4651H67.1275C67.4018 54.4906 67.6571 54.6262 67.8432 54.845C68.0293 55.0639 68.1325 55.3501 68.1325 55.647C68.1325 55.944 68.0293 56.2302 67.8432 56.449C67.6571 56.6679 67.4018 56.8035 67.1275 56.829Z" fill="#263238"/>
<path d="M67.1274 65.1071H7.9638C7.67218 65.1071 7.39251 64.9821 7.1863 64.7596C6.9801 64.5371 6.86426 64.2354 6.86426 63.9207C6.86426 63.6061 6.9801 63.3043 7.1863 63.0819C7.39251 62.8594 7.67218 62.7344 7.9638 62.7344H67.1274C67.419 62.7344 67.6986 62.8594 67.9049 63.0819C68.1111 63.3043 68.2269 63.6061 68.2269 63.9207C68.2269 64.2354 68.1111 64.5371 67.9049 64.7596C67.6986 64.9821 67.419 65.1071 67.1274 65.1071Z" fill="#263238"/>
<path d="M67.1274 73.3849H7.9638C7.67218 73.3849 7.39251 73.2599 7.1863 73.0374C6.9801 72.8149 6.86426 72.5132 6.86426 72.1985C6.86426 71.8839 6.9801 71.5822 7.1863 71.3597C7.39251 71.1372 7.67218 71.0122 7.9638 71.0122H67.1274C67.419 71.0122 67.6986 71.1372 67.9049 71.3597C68.1111 71.5822 68.2269 71.8839 68.2269 72.1985C68.2269 72.5132 68.1111 72.8149 67.9049 73.0374C67.6986 73.2599 67.419 73.3849 67.1274 73.3849Z" fill="#263238"/>
<path d="M67.1275 81.6542H7.96398C7.68975 81.6286 7.43437 81.4931 7.24829 81.2742C7.06222 81.0554 6.95898 80.7692 6.95898 80.4722C6.95898 80.1753 7.06222 79.8891 7.24829 79.6702C7.43437 79.4514 7.68975 79.3158 7.96398 79.2903H67.1275C67.4018 79.3158 67.6571 79.4514 67.8432 79.6702C68.0293 79.8891 68.1325 80.1753 68.1325 80.4722C68.1325 80.7692 68.0293 81.0554 67.8432 81.2742C67.6571 81.4931 67.4018 81.6286 67.1275 81.6542Z" fill="#263238"/>
<path d="M67.1275 89.0097H7.96398C7.68975 88.9841 7.43437 88.8485 7.24829 88.6297C7.06222 88.4109 6.95898 88.1247 6.95898 87.8277C6.95898 87.5307 7.06222 87.2446 7.24829 87.0257C7.43437 86.8069 7.68975 86.6713 7.96398 86.6458H67.1275C67.4018 86.6713 67.6571 86.8069 67.8432 87.0257C68.0293 87.2446 68.1325 87.5307 68.1325 87.8277C68.1325 88.1247 68.0293 88.4109 67.8432 88.6297C67.6571 88.8485 67.4018 88.9841 67.1275 89.0097Z" fill="#263238"/>
<path d="M67.1274 97.3141H7.9638C7.67218 97.3141 7.39251 97.1891 7.1863 96.9666C6.9801 96.7441 6.86426 96.4424 6.86426 96.1277C6.86426 95.8131 6.9801 95.5114 7.1863 95.2889C7.39251 95.0664 7.67218 94.9414 7.9638 94.9414H67.1274C67.419 94.9414 67.6986 95.0664 67.9049 95.2889C68.1111 95.5114 68.2269 95.8131 68.2269 96.1277C68.2269 96.4424 68.1111 96.7441 67.9049 96.9666C67.6986 97.1891 67.419 97.3141 67.1274 97.3141Z" fill="#263238"/>
<path d="M67.1275 105.557H7.96398C7.68975 105.531 7.43437 105.396 7.24829 105.177C7.06222 104.958 6.95898 104.672 6.95898 104.375C6.95898 104.078 7.06222 103.792 7.24829 103.573C7.43437 103.354 7.68975 103.219 7.96398 103.193H67.1275C67.4018 103.219 67.6571 103.354 67.8432 103.573C68.0293 103.792 68.1325 104.078 68.1325 104.375C68.1325 104.672 68.0293 104.958 67.8432 105.177C67.6571 105.396 67.4018 105.531 67.1275 105.557Z" fill="#263238"/>
<path d="M67.1274 113.835H7.9638C7.67218 113.835 7.39251 113.71 7.1863 113.487C6.9801 113.265 6.86426 112.963 6.86426 112.648C6.86426 112.334 6.9801 112.032 7.1863 111.81C7.39251 111.587 7.67218 111.462 7.9638 111.462H67.1274C67.419 111.462 67.6986 111.587 67.9049 111.81C68.1111 112.032 68.2269 112.334 68.2269 112.648C68.2269 112.963 68.1111 113.265 67.9049 113.487C67.6986 113.71 67.419 113.835 67.1274 113.835Z" fill="#263238"/>
<path d="M67.1275 122.104H7.96398C7.68975 122.079 7.43437 121.943 7.24829 121.724C7.06222 121.506 6.95898 121.219 6.95898 120.922C6.95898 120.625 7.06222 120.339 7.24829 120.12C7.43437 119.902 7.68975 119.766 7.96398 119.74H67.1275C67.4018 119.766 67.6571 119.902 67.8432 120.12C68.0293 120.339 68.1325 120.625 68.1325 120.922C68.1325 121.219 68.0293 121.506 67.8432 121.724C67.6571 121.943 67.4018 122.079 67.1275 122.104Z" fill="#263238"/>
<path d="M67.1275 130.382H7.96398C7.68975 130.357 7.43437 130.221 7.24829 130.003C7.06222 129.784 6.95898 129.497 6.95898 129.201C6.95898 128.904 7.06222 128.617 7.24829 128.399C7.43437 128.18 7.68975 128.044 7.96398 128.019H67.1275C67.4018 128.044 67.6571 128.18 67.8432 128.399C68.0293 128.617 68.1325 128.904 68.1325 129.201C68.1325 129.497 68.0293 129.784 67.8432 130.003C67.6571 130.221 67.4018 130.357 67.1275 130.382Z" fill="#263238"/>
<path d="M143.281 32.0121H84.1415C83.8499 32.0121 83.5703 31.8871 83.364 31.6646C83.1578 31.4422 83.042 31.1404 83.042 30.8258C83.042 30.5111 83.1578 30.2094 83.364 29.9869C83.5703 29.7644 83.8499 29.6394 84.1415 29.6394H143.281C143.572 29.6394 143.852 29.7644 144.058 29.9869C144.264 30.2094 144.38 30.5111 144.38 30.8258C144.38 31.1404 144.264 31.4422 144.058 31.6646C143.852 31.8871 143.572 32.0121 143.281 32.0121Z" fill="#263238"/>
<path d="M143.28 40.2816H84.1414C83.9896 40.2958 83.8367 40.2757 83.6925 40.2227C83.5482 40.1698 83.4158 40.085 83.3035 39.9739C83.1912 39.8627 83.1016 39.7276 83.0403 39.5772C82.9789 39.4267 82.9473 39.2641 82.9473 39.0997C82.9473 38.9353 82.9789 38.7727 83.0403 38.6222C83.1016 38.4717 83.1912 38.3366 83.3035 38.2255C83.4158 38.1143 83.5482 38.0296 83.6925 37.9766C83.8367 37.9236 83.9896 37.9036 84.1414 37.9177H143.28C143.432 37.9036 143.585 37.9236 143.729 37.9766C143.874 38.0296 144.006 38.1143 144.118 38.2255C144.231 38.3366 144.32 38.4717 144.382 38.6222C144.443 38.7727 144.475 38.9353 144.475 39.0997C144.475 39.2641 144.443 39.4267 144.382 39.5772C144.32 39.7276 144.231 39.8627 144.118 39.9739C144.006 40.085 143.874 40.1698 143.729 40.2227C143.585 40.2757 143.432 40.2958 143.28 40.2816Z" fill="#263238"/>
<path d="M143.281 48.5595H84.1415C83.8499 48.5595 83.5703 48.4345 83.364 48.212C83.1578 47.9895 83.042 47.6877 83.042 47.3731C83.042 47.0585 83.1578 46.7567 83.364 46.5342C83.5703 46.3118 83.8499 46.1868 84.1415 46.1868H143.281C143.572 46.1868 143.852 46.3118 144.058 46.5342C144.264 46.7567 144.38 47.0585 144.38 47.3731C144.38 47.6877 144.264 47.9895 144.058 48.212C143.852 48.4345 143.572 48.5595 143.281 48.5595Z" fill="#263238"/>
<path d="M143.28 56.8287H84.1414C83.9896 56.8429 83.8367 56.8228 83.6925 56.7699C83.5482 56.7169 83.4158 56.6321 83.3035 56.521C83.1912 56.4099 83.1016 56.2748 83.0403 56.1243C82.9789 55.9738 82.9473 55.8112 82.9473 55.6468C82.9473 55.4824 82.9789 55.3198 83.0403 55.1693C83.1016 55.0188 83.1912 54.8837 83.3035 54.7726C83.4158 54.6615 83.5482 54.5767 83.6925 54.5237C83.8367 54.4708 83.9896 54.4507 84.1414 54.4648H143.28C143.432 54.4507 143.585 54.4708 143.729 54.5237C143.874 54.5767 144.006 54.6615 144.118 54.7726C144.231 54.8837 144.32 55.0188 144.382 55.1693C144.443 55.3198 144.475 55.4824 144.475 55.6468C144.475 55.8112 144.443 55.9738 144.382 56.1243C144.32 56.2748 144.231 56.4099 144.118 56.521C144.006 56.6321 143.874 56.7169 143.729 56.7699C143.585 56.8228 143.432 56.8429 143.28 56.8287Z" fill="#263238"/>
<path d="M143.281 65.1071H84.1415C83.8499 65.1071 83.5703 64.9821 83.364 64.7596C83.1578 64.5371 83.042 64.2354 83.042 63.9207C83.042 63.6061 83.1578 63.3043 83.364 63.0819C83.5703 62.8594 83.8499 62.7344 84.1415 62.7344H143.281C143.572 62.7344 143.852 62.8594 144.058 63.0819C144.264 63.3043 144.38 63.6061 144.38 63.9207C144.38 64.2354 144.264 64.5371 144.058 64.7596C143.852 64.9821 143.572 65.1071 143.281 65.1071Z" fill="#263238"/>
<path d="M143.281 73.3849H84.1415C83.9971 73.3849 83.8542 73.3542 83.7208 73.2946C83.5874 73.235 83.4662 73.1476 83.364 73.0374C83.2619 72.9273 83.181 72.7965 83.1257 72.6526C83.0704 72.5086 83.042 72.3543 83.042 72.1985C83.042 72.0428 83.0704 71.8885 83.1257 71.7446C83.181 71.6006 83.2619 71.4698 83.364 71.3597C83.4662 71.2495 83.5874 71.1621 83.7208 71.1025C83.8542 71.0429 83.9971 71.0122 84.1415 71.0122H143.281C143.425 71.0122 143.568 71.0429 143.701 71.1025C143.835 71.1621 143.956 71.2495 144.058 71.3597C144.16 71.4698 144.241 71.6006 144.296 71.7446C144.352 71.8885 144.38 72.0428 144.38 72.1985C144.38 72.3543 144.352 72.5086 144.296 72.6526C144.241 72.7965 144.16 72.9273 144.058 73.0374C143.956 73.1476 143.835 73.235 143.701 73.2946C143.568 73.3542 143.425 73.3849 143.281 73.3849Z" fill="#263238"/>
<path d="M143.28 81.6539H84.1414C83.9896 81.6681 83.8367 81.648 83.6925 81.595C83.5482 81.5421 83.4158 81.4573 83.3035 81.3462C83.1912 81.2351 83.1016 81.1 83.0403 80.9495C82.9789 80.799 82.9473 80.6364 82.9473 80.472C82.9473 80.3076 82.9789 80.145 83.0403 79.9945C83.1016 79.844 83.1912 79.7089 83.3035 79.5978C83.4158 79.4867 83.5482 79.4019 83.6925 79.3489C83.8367 79.296 83.9896 79.2759 84.1414 79.29H143.28C143.432 79.2759 143.585 79.296 143.729 79.3489C143.874 79.4019 144.006 79.4867 144.118 79.5978C144.231 79.7089 144.32 79.844 144.382 79.9945C144.443 80.145 144.475 80.3076 144.475 80.472C144.475 80.6364 144.443 80.799 144.382 80.9495C144.32 81.1 144.231 81.2351 144.118 81.3462C144.006 81.4573 143.874 81.5421 143.729 81.595C143.585 81.648 143.432 81.6681 143.28 81.6539Z" fill="#263238"/>
<path d="M144.348 87.2168H84.0767V132.57H144.348V87.2168Z" fill="#F02828"/>
<path d="M28.5863 34.3585C28.7534 33.8079 28.8413 33.233 28.847 32.6536C28.847 30.5358 26.8596 30.4128 24.8967 30.4128H24.4081V29.9119H32.9193V30.4128C30.704 30.4128 29.9221 31.9331 29.2053 34.2091L24.6768 48.8495C24.3348 49.9304 24.0497 50.7389 22.9827 50.7389H22.8931L18.8941 36.7575L15.1475 48.8495C14.7972 49.9304 14.5122 50.7389 13.4452 50.7389H13.3719L7.55654 30.4128H5.51221V29.9119H12.9972V30.4128H10.8715L15.1882 46.4504H15.3592L18.6171 35.7557L17.0941 30.4128H15.0497V29.9119H22.5348V30.4128H20.4008L24.7257 46.4504H24.8967L28.5863 34.3585Z" fill="#263238"/>
<path d="M165.41 24.7268H103.982V202.512H165.41V24.7268Z" fill="#F02828"/>
<path opacity="0.4" d="M165.41 24.7268H103.982V202.512H165.41V24.7268Z" fill="white"/>
<path d="M256.119 18.0745H108.576V220H256.119V18.0745Z" fill="white" stroke="#263238" stroke-width="0.75" stroke-linecap="round" stroke-linejoin="round"/>
<path d="M256.119 18.0745H108.576V30.1225H256.119V18.0745Z" fill="#263238" stroke="#263238" stroke-width="0.75" stroke-linecap="round" stroke-linejoin="round"/>
<path d="M210.085 46.6699H158.276V151.165H210.085V46.6699Z" fill="#F02828"/>
<path d="M251.908 158.899H112.795V216.011H251.908V158.899Z" fill="#F02828"/>
<path d="M251.908 22.8376H112.795V36.6784H251.908V22.8376Z" fill="#F02828"/>
<path opacity="0.6" d="M251.908 22.8376H112.795V36.6784H251.908V22.8376Z" fill="white"/>
<path d="M249.952 25.5266H115.295V31.6517H249.952V25.5266Z" fill="white"/>
<path d="M249.945 25.5266H234.698V31.6517H249.945V25.5266Z" fill="#263238" stroke="#263238" stroke-width="0.75" stroke-linecap="round" stroke-linejoin="round"/>
<path d="M149.568 49.078H114.065C113.913 49.0922 113.761 49.0721 113.616 49.0191C113.472 48.9661 113.34 48.8814 113.227 48.7703C113.115 48.6591 113.025 48.524 112.964 48.3736C112.903 48.2231 112.871 48.0605 112.871 47.8961C112.871 47.7317 112.903 47.5691 112.964 47.4186C113.025 47.2681 113.115 47.133 113.227 47.0219C113.34 46.9107 113.472 46.826 113.616 46.773C113.761 46.72 113.913 46.7 114.065 46.7141H149.568C149.72 46.7 149.873 46.72 150.017 46.773C150.161 46.826 150.294 46.9107 150.406 47.0219C150.518 47.133 150.608 47.2681 150.669 47.4186C150.731 47.5691 150.762 47.7317 150.762 47.8961C150.762 48.0605 150.731 48.2231 150.669 48.3736C150.608 48.524 150.518 48.6591 150.406 48.7703C150.294 48.8814 150.161 48.9661 150.017 49.0191C149.873 49.0721 149.72 49.0922 149.568 49.078Z" fill="#263238"/>
<path d="M149.569 57.3561H114.066C113.774 57.3561 113.495 57.2311 113.288 57.0086C113.082 56.7861 112.966 56.4844 112.966 56.1697C112.966 55.8551 113.082 55.5534 113.288 55.3309C113.495 55.1084 113.774 54.9834 114.066 54.9834H149.569C149.86 54.9834 150.14 55.1084 150.346 55.3309C150.553 55.5534 150.668 55.8551 150.668 56.1697C150.668 56.4844 150.553 56.7861 150.346 57.0086C150.14 57.2311 149.86 57.3561 149.569 57.3561Z" fill="#263238"/>
<path d="M149.568 65.6254H114.065C113.913 65.6395 113.761 65.6195 113.616 65.5665C113.472 65.5135 113.34 65.4288 113.227 65.3176C113.115 65.2065 113.025 65.0714 112.964 64.9209C112.903 64.7704 112.871 64.6078 112.871 64.4434C112.871 64.279 112.903 64.1164 112.964 63.9659C113.025 63.8155 113.115 63.6804 113.227 63.5692C113.34 63.4581 113.472 63.3734 113.616 63.3204C113.761 63.2674 113.913 63.2473 114.065 63.2615H149.568C149.72 63.2473 149.873 63.2674 150.017 63.3204C150.161 63.3734 150.294 63.4581 150.406 63.5692C150.518 63.6804 150.608 63.8155 150.669 63.9659C150.731 64.1164 150.762 64.279 150.762 64.4434C150.762 64.6078 150.731 64.7704 150.669 64.9209C150.608 65.0714 150.518 65.2065 150.406 65.3176C150.294 65.4288 150.161 65.5135 150.017 65.5665C149.873 65.6195 149.72 65.6395 149.568 65.6254Z" fill="#263238"/>
<path d="M149.569 73.9032H114.066C113.921 73.9032 113.778 73.8725 113.645 73.8129C113.512 73.7533 113.39 73.6659 113.288 73.5557C113.186 73.4456 113.105 73.3148 113.05 73.1709C112.995 73.0269 112.966 72.8727 112.966 72.7169C112.966 72.5611 112.995 72.4068 113.05 72.2629C113.105 72.1189 113.186 71.9881 113.288 71.878C113.39 71.7678 113.512 71.6804 113.645 71.6208C113.778 71.5612 113.921 71.5305 114.066 71.5305H149.569C149.86 71.5305 150.14 71.6555 150.346 71.878C150.553 72.1005 150.668 72.4022 150.668 72.7169C150.668 73.0315 150.553 73.3333 150.346 73.5557C150.14 73.7782 149.86 73.9032 149.569 73.9032Z" fill="#263238"/>
<path d="M149.568 82.1727H114.065C113.913 82.1869 113.761 82.1668 113.616 82.1138C113.472 82.0609 113.34 81.9761 113.227 81.865C113.115 81.7539 113.025 81.6188 112.964 81.4683C112.903 81.3178 112.871 81.1552 112.871 80.9908C112.871 80.8264 112.903 80.6638 112.964 80.5133C113.025 80.3628 113.115 80.2277 113.227 80.1166C113.34 80.0055 113.472 79.9207 113.616 79.8677C113.761 79.8148 113.913 79.7947 114.065 79.8088H149.568C149.72 79.7947 149.873 79.8148 150.017 79.8677C150.161 79.9207 150.294 80.0055 150.406 80.1166C150.518 80.2277 150.608 80.3628 150.669 80.5133C150.731 80.6638 150.762 80.8264 150.762 80.9908C150.762 81.1552 150.731 81.3178 150.669 81.4683C150.608 81.6188 150.518 81.7539 150.406 81.865C150.294 81.9761 150.161 82.0609 150.017 82.1138C149.873 82.1668 149.72 82.1869 149.568 82.1727Z" fill="#263238"/>
<path d="M149.568 90.4508H114.065C113.913 90.465 113.761 90.4449 113.616 90.3919C113.472 90.3389 113.34 90.2542 113.227 90.1431C113.115 90.0319 113.025 89.8968 112.964 89.7464C112.903 89.5959 112.871 89.4333 112.871 89.2689C112.871 89.1045 112.903 88.9419 112.964 88.7914C113.025 88.6409 113.115 88.5058 113.227 88.3947C113.34 88.2835 113.472 88.1988 113.616 88.1458C113.761 88.0928 113.913 88.0728 114.065 88.0869H149.568C149.72 88.0728 149.873 88.0928 150.017 88.1458C150.161 88.1988 150.294 88.2835 150.406 88.3947C150.518 88.5058 150.608 88.6409 150.669 88.7914C150.731 88.9419 150.762 89.1045 150.762 89.2689C150.762 89.4333 150.731 89.5959 150.669 89.7464C150.608 89.8968 150.518 90.0319 150.406 90.1431C150.294 90.2542 150.161 90.3389 150.017 90.3919C149.873 90.4449 149.72 90.465 149.568 90.4508Z" fill="#263238"/>
<path d="M149.569 98.7289H114.066C113.921 98.7289 113.778 98.6982 113.645 98.6386C113.512 98.579 113.39 98.4916 113.288 98.3814C113.186 98.2713 113.105 98.1405 113.05 97.9965C112.995 97.8526 112.966 97.6983 112.966 97.5425C112.966 97.3867 112.995 97.2325 113.05 97.0886C113.105 96.9446 113.186 96.8138 113.288 96.7037C113.39 96.5935 113.512 96.5061 113.645 96.4465C113.778 96.3869 113.921 96.3562 114.066 96.3562H149.569C149.86 96.3562 150.14 96.4812 150.346 96.7037C150.553 96.9262 150.668 97.2279 150.668 97.5425C150.668 97.8572 150.553 98.1589 150.346 98.3814C150.14 98.6039 149.86 98.7289 149.569 98.7289Z" fill="#263238"/>
<path d="M149.569 106.102H114.066C113.774 106.102 113.495 105.977 113.288 105.754C113.082 105.532 112.966 105.23 112.966 104.915C112.966 104.601 113.082 104.299 113.288 104.076C113.495 103.854 113.774 103.729 114.066 103.729H149.569C149.86 103.729 150.14 103.854 150.346 104.076C150.553 104.299 150.668 104.601 150.668 104.915C150.668 105.23 150.553 105.532 150.346 105.754C150.14 105.977 149.86 106.102 149.569 106.102Z" fill="#263238"/>
<path d="M149.568 114.354H114.065C113.913 114.368 113.761 114.348 113.616 114.295C113.472 114.242 113.34 114.157 113.227 114.046C113.115 113.935 113.025 113.8 112.964 113.649C112.903 113.499 112.871 113.336 112.871 113.172C112.871 113.007 112.903 112.845 112.964 112.694C113.025 112.544 113.115 112.409 113.227 112.298C113.34 112.186 113.472 112.102 113.616 112.049C113.761 111.996 113.913 111.976 114.065 111.99H149.568C149.72 111.976 149.873 111.996 150.017 112.049C150.161 112.102 150.294 112.186 150.406 112.298C150.518 112.409 150.608 112.544 150.669 112.694C150.731 112.845 150.762 113.007 150.762 113.172C150.762 113.336 150.731 113.499 150.669 113.649C150.608 113.8 150.518 113.935 150.406 114.046C150.294 114.157 150.161 114.242 150.017 114.295C149.873 114.348 149.72 114.368 149.568 114.354Z" fill="#263238"/>
<path d="M149.569 122.631H114.066C113.774 122.631 113.495 122.506 113.288 122.284C113.082 122.061 112.966 121.76 112.966 121.445C112.966 121.13 113.082 120.828 113.288 120.606C113.495 120.384 113.774 120.259 114.066 120.259H149.569C149.86 120.259 150.14 120.384 150.346 120.606C150.553 120.828 150.668 121.13 150.668 121.445C150.668 121.76 150.553 122.061 150.346 122.284C150.14 122.506 149.86 122.631 149.569 122.631Z" fill="#263238"/>
<path d="M149.568 130.901H114.065C113.913 130.915 113.761 130.895 113.616 130.842C113.472 130.789 113.34 130.704 113.227 130.593C113.115 130.482 113.025 130.347 112.964 130.197C112.903 130.046 112.871 129.883 112.871 129.719C112.871 129.555 112.903 129.392 112.964 129.242C113.025 129.091 113.115 128.956 113.227 128.845C113.34 128.734 113.472 128.649 113.616 128.596C113.761 128.543 113.913 128.523 114.065 128.537H149.568C149.72 128.523 149.873 128.543 150.017 128.596C150.161 128.649 150.294 128.734 150.406 128.845C150.518 128.956 150.608 129.091 150.669 129.242C150.731 129.392 150.762 129.555 150.762 129.719C150.762 129.883 150.731 130.046 150.669 130.197C150.608 130.347 150.518 130.482 150.406 130.593C150.294 130.704 150.161 130.789 150.017 130.842C149.873 130.895 149.72 130.915 149.568 130.901Z" fill="#263238"/>
<path d="M149.569 139.179H114.066C113.774 139.179 113.495 139.054 113.288 138.831C113.082 138.609 112.966 138.307 112.966 137.992C112.966 137.678 113.082 137.376 113.288 137.154C113.495 136.931 113.774 136.806 114.066 136.806H149.569C149.86 136.806 150.14 136.931 150.346 137.154C150.553 137.376 150.668 137.678 150.668 137.992C150.668 138.307 150.553 138.609 150.346 138.831C150.14 139.054 149.86 139.179 149.569 139.179Z" fill="#263238"/>
<path d="M149.568 147.448H114.065C113.913 147.462 113.761 147.442 113.616 147.389C113.472 147.336 113.34 147.252 113.227 147.14C113.115 147.029 113.025 146.894 112.964 146.744C112.903 146.593 112.871 146.431 112.871 146.266C112.871 146.102 112.903 145.939 112.964 145.789C113.025 145.638 113.115 145.503 113.227 145.392C113.34 145.281 113.472 145.196 113.616 145.143C113.761 145.09 113.913 145.07 114.065 145.084H149.568C149.72 145.07 149.873 145.09 150.017 145.143C150.161 145.196 150.294 145.281 150.406 145.392C150.518 145.503 150.608 145.638 150.669 145.789C150.731 145.939 150.762 146.102 150.762 146.266C150.762 146.431 150.731 146.593 150.669 146.744C150.608 146.894 150.518 147.029 150.406 147.14C150.294 147.252 150.161 147.336 150.017 147.389C149.873 147.442 149.72 147.462 149.568 147.448Z" fill="#263238"/>
<path d="M149.568 155.726H114.065C113.913 155.741 113.761 155.721 113.616 155.668C113.472 155.615 113.34 155.53 113.227 155.419C113.115 155.308 113.025 155.172 112.964 155.022C112.903 154.871 112.871 154.709 112.871 154.545C112.871 154.38 112.903 154.218 112.964 154.067C113.025 153.917 113.115 153.781 113.227 153.67C113.34 153.559 113.472 153.474 113.616 153.421C113.761 153.368 113.913 153.348 114.065 153.363H149.568C149.72 153.348 149.873 153.368 150.017 153.421C150.161 153.474 150.294 153.559 150.406 153.67C150.518 153.781 150.608 153.917 150.669 154.067C150.731 154.218 150.762 154.38 150.762 154.545C150.762 154.709 150.731 154.871 150.669 155.022C150.608 155.172 150.518 155.308 150.406 155.419C150.294 155.53 150.161 155.615 150.017 155.668C149.873 155.721 149.72 155.741 149.568 155.726Z" fill="#263238"/>
<path d="M251.638 49.078H216.176C216.024 49.0922 215.871 49.0721 215.727 49.0191C215.583 48.9661 215.45 48.8814 215.338 48.7703C215.226 48.6591 215.136 48.524 215.075 48.3736C215.014 48.2231 214.982 48.0605 214.982 47.8961C214.982 47.7317 215.014 47.5691 215.075 47.4186C215.136 47.2681 215.226 47.133 215.338 47.0219C215.45 46.9107 215.583 46.826 215.727 46.773C215.871 46.72 216.024 46.7 216.176 46.7141H251.679C251.831 46.7 251.984 46.72 252.128 46.773C252.272 46.826 252.405 46.9107 252.517 47.0219C252.629 47.133 252.719 47.2681 252.78 47.4186C252.841 47.5691 252.873 47.7317 252.873 47.8961C252.873 48.0605 252.841 48.2231 252.78 48.3736C252.719 48.524 252.629 48.6591 252.517 48.7703C252.405 48.8814 252.272 48.9661 252.128 49.0191C251.984 49.0721 251.831 49.0922 251.679 49.078H251.638Z" fill="#263238"/>
<path d="M251.639 57.3561H216.177C216.032 57.3561 215.889 57.3254 215.756 57.2658C215.623 57.2062 215.501 57.1188 215.399 57.0086C215.297 56.8985 215.216 56.7677 215.161 56.6237C215.106 56.4798 215.077 56.3255 215.077 56.1697C215.077 56.0139 215.106 55.8597 215.161 55.7157C215.216 55.5718 215.297 55.441 215.399 55.3309C215.501 55.2207 215.623 55.1333 215.756 55.0737C215.889 55.0141 216.032 54.9834 216.177 54.9834H251.68C251.971 54.9834 252.251 55.1084 252.457 55.3309C252.663 55.5534 252.779 55.8551 252.779 56.1697C252.779 56.4844 252.663 56.7861 252.457 57.0086C252.251 57.2311 251.971 57.3561 251.68 57.3561H251.639Z" fill="#263238"/>
<path d="M251.638 65.6254H216.176C216.024 65.6395 215.871 65.6195 215.727 65.5665C215.583 65.5135 215.45 65.4288 215.338 65.3176C215.226 65.2065 215.136 65.0714 215.075 64.9209C215.014 64.7704 214.982 64.6078 214.982 64.4434C214.982 64.279 215.014 64.1164 215.075 63.9659C215.136 63.8155 215.226 63.6804 215.338 63.5692C215.45 63.4581 215.583 63.3734 215.727 63.3204C215.871 63.2674 216.024 63.2473 216.176 63.2615H251.679C251.831 63.2473 251.984 63.2674 252.128 63.3204C252.272 63.3734 252.405 63.4581 252.517 63.5692C252.629 63.6804 252.719 63.8155 252.78 63.9659C252.841 64.1164 252.873 64.279 252.873 64.4434C252.873 64.6078 252.841 64.7704 252.78 64.9209C252.719 65.0714 252.629 65.2065 252.517 65.3176C252.405 65.4288 252.272 65.5135 252.128 65.5665C251.984 65.6195 251.831 65.6395 251.679 65.6254H251.638Z" fill="#263238"/>
<path d="M251.639 73.9032H216.177C216.032 73.9032 215.889 73.8725 215.756 73.8129C215.623 73.7533 215.501 73.6659 215.399 73.5557C215.297 73.4456 215.216 73.3148 215.161 73.1709C215.106 73.0269 215.077 72.8727 215.077 72.7169C215.077 72.5611 215.106 72.4068 215.161 72.2629C215.216 72.1189 215.297 71.9881 215.399 71.878C215.501 71.7678 215.623 71.6804 215.756 71.6208C215.889 71.5612 216.032 71.5305 216.177 71.5305H251.68C251.971 71.5305 252.251 71.6555 252.457 71.878C252.663 72.1005 252.779 72.4022 252.779 72.7169C252.779 73.0315 252.663 73.3333 252.457 73.5557C252.251 73.7782 251.971 73.9032 251.68 73.9032H251.639Z" fill="#263238"/>
<path d="M251.638 82.1727H216.176C216.024 82.1869 215.871 82.1668 215.727 82.1138C215.583 82.0609 215.45 81.9761 215.338 81.865C215.226 81.7539 215.136 81.6188 215.075 81.4683C215.014 81.3178 214.982 81.1552 214.982 80.9908C214.982 80.8264 215.014 80.6638 215.075 80.5133C215.136 80.3628 215.226 80.2277 215.338 80.1166C215.45 80.0055 215.583 79.9207 215.727 79.8677C215.871 79.8148 216.024 79.7947 216.176 79.8088H251.679C251.831 79.7947 251.984 79.8148 252.128 79.8677C252.272 79.9207 252.405 80.0055 252.517 80.1166C252.629 80.2277 252.719 80.3628 252.78 80.5133C252.841 80.6638 252.873 80.8264 252.873 80.9908C252.873 81.1552 252.841 81.3178 252.78 81.4683C252.719 81.6188 252.629 81.7539 252.517 81.865C252.405 81.9761 252.272 82.0609 252.128 82.1138C251.984 82.1668 251.831 82.1869 251.679 82.1727H251.638Z" fill="#263238"/>
<path d="M251.638 90.4508H216.176C216.024 90.465 215.871 90.4449 215.727 90.3919C215.583 90.3389 215.45 90.2542 215.338 90.1431C215.226 90.0319 215.136 89.8968 215.075 89.7464C215.014 89.5959 214.982 89.4333 214.982 89.2689C214.982 89.1045 215.014 88.9419 215.075 88.7914C215.136 88.6409 215.226 88.5058 215.338 88.3947C215.45 88.2835 215.583 88.1988 215.727 88.1458C215.871 88.0928 216.024 88.0728 216.176 88.0869H251.679C251.831 88.0728 251.984 88.0928 252.128 88.1458C252.272 88.1988 252.405 88.2835 252.517 88.3947C252.629 88.5058 252.719 88.6409 252.78 88.7914C252.841 88.9419 252.873 89.1045 252.873 89.2689C252.873 89.4333 252.841 89.5959 252.78 89.7464C252.719 89.8968 252.629 90.0319 252.517 90.1431C252.405 90.2542 252.272 90.3389 252.128 90.3919C251.984 90.4449 251.831 90.465 251.679 90.4508H251.638Z" fill="#263238"/>
<path d="M251.639 98.7289H216.177C216.032 98.7289 215.889 98.6982 215.756 98.6386C215.623 98.579 215.501 98.4916 215.399 98.3814C215.297 98.2713 215.216 98.1405 215.161 97.9965C215.106 97.8526 215.077 97.6983 215.077 97.5425C215.077 97.3867 215.106 97.2325 215.161 97.0886C215.216 96.9446 215.297 96.8138 215.399 96.7037C215.501 96.5935 215.623 96.5061 215.756 96.4465C215.889 96.3869 216.032 96.3562 216.177 96.3562H251.68C251.971 96.3562 252.251 96.4812 252.457 96.7037C252.663 96.9262 252.779 97.2279 252.779 97.5425C252.779 97.8572 252.663 98.1589 252.457 98.3814C252.251 98.6039 251.971 98.7289 251.68 98.7289H251.639Z" fill="#263238"/>
<path d="M251.932 104.283H215.289V149.637H251.932V104.283Z" fill="#F02828"/>
</svg>
