<svg width="64" height="64" viewBox="0 0 64 64" fill="none" xmlns="http://www.w3.org/2000/svg">
<path d="M62.6795 1.33789C62.1045 0.763412 61.3867 0.352569 60.6001 0.147674C59.8134 -0.0572215 58.9863 -0.04876 58.204 0.172186H58.1611L3.30637 16.812C2.41583 17.0686 1.6243 17.5896 1.03667 18.3061C0.449041 19.0225 0.0930532 19.9006 0.0158827 20.8239C-0.0612877 21.7472 0.144002 22.6722 0.604548 23.4762C1.06509 24.2802 1.75915 24.9254 2.59475 25.3261L26.8641 37.1431L38.6673 61.3914C39.0344 62.1746 39.6181 62.8364 40.3494 63.2987C41.0807 63.7609 41.929 64.0042 42.7942 63.9999C42.9256 63.9999 43.0571 63.9942 43.1885 63.9828C44.1114 63.9081 44.9893 63.553 45.7044 62.9652C46.4196 62.3774 46.9379 61.585 47.1896 60.6943L63.8227 5.85497C63.8227 5.84069 63.8227 5.8264 63.8227 5.81211C64.0466 5.03202 64.0587 4.2064 63.8578 3.42008C63.6568 2.63376 63.2502 1.91509 62.6795 1.33789ZM42.8199 59.3857L42.8056 59.4257V59.4057L31.3568 35.8917L45.0748 22.1776C45.4854 21.7455 45.711 21.1701 45.7034 20.574C45.6957 19.978 45.4555 19.4086 45.0339 18.9871C44.6123 18.5656 44.0427 18.3254 43.4465 18.3178C42.8503 18.3102 42.2747 18.5357 41.8425 18.9462L28.1245 32.6603L4.59529 21.2148H4.57528H4.61529L59.4444 4.57213L42.8199 59.3857Z" fill="#E8F2FD"/>
</svg>
