<svg width="52" height="64" viewBox="0 0 52 64" fill="none" xmlns="http://www.w3.org/2000/svg">
<path d="M51.2381 48.5093L35.6385 63.2781C35.397 63.5069 35.1103 63.6885 34.7947 63.8124C34.479 63.9362 34.1407 64 33.7991 64C33.4574 64 33.1191 63.9362 32.8034 63.8124C32.4878 63.6885 32.2011 63.5069 31.9596 63.2781L16.36 48.5093C15.8722 48.0474 15.5981 47.421 15.5981 46.7678C15.5981 46.1146 15.8722 45.4882 16.36 45.0263C16.8479 44.5645 17.5096 44.305 18.1995 44.305C18.8894 44.305 19.5511 44.5645 20.0389 45.0263L31.1991 55.5952V31.999C31.1905 24.8205 28.1746 17.9383 22.8131 12.8623C17.4516 7.78634 10.1823 4.93107 2.59993 4.92293C1.91038 4.92293 1.24908 4.6636 0.761502 4.20198C0.273921 3.74037 0 3.11429 0 2.46146C0 1.80864 0.273921 1.18256 0.761502 0.720946C1.24908 0.259332 1.91038 0 2.59993 0C11.5611 0.00895917 20.1525 3.38315 26.489 9.38219C32.8255 15.3812 36.3895 23.5151 36.399 31.999V55.5952L47.5592 45.0263C48.047 44.5645 48.7087 44.305 49.3986 44.305C50.0886 44.305 50.7502 44.5645 51.2381 45.0263C51.7259 45.4882 52 46.1146 52 46.7678C52 47.421 51.7259 48.0474 51.2381 48.5093Z" fill="#E8F2FD"/>
</svg>
