<svg width="69" height="64" viewBox="0 0 69 64" fill="none" xmlns="http://www.w3.org/2000/svg">
<path d="M66.6586 30.8038C66.6547 27.0144 65.1476 23.3813 62.4681 20.7017C59.7885 18.0222 56.1554 16.5151 52.366 16.5112H40.515C39.6485 16.4606 24.549 15.3975 10.17 3.33813C9.47563 2.75497 8.62926 2.38208 7.73032 2.26325C6.83138 2.14443 5.91719 2.28461 5.09516 2.66733C4.27312 3.05005 3.57738 3.65941 3.08966 4.42384C2.60193 5.18826 2.34249 6.07599 2.3418 6.98275V54.6249C2.34192 55.5319 2.60095 56.42 3.08846 57.1849C3.57596 57.9497 4.27167 58.5595 5.09381 58.9426C5.91595 59.3257 6.83037 59.4661 7.72958 59.3474C8.62879 59.2287 9.47543 58.8558 10.17 58.2725C21.4165 48.8393 33.0977 46.1356 38.0734 45.3793V54.8244C38.0724 55.6094 38.2654 56.3826 38.6353 57.075C39.0051 57.7675 39.5404 58.3578 40.1934 58.7935L43.4688 60.9761C44.1019 61.3987 44.827 61.6634 45.5835 61.7481C46.3399 61.8328 47.1056 61.7351 47.8165 61.463C48.5274 61.191 49.1627 60.7526 49.6693 60.1845C50.1759 59.6164 50.5391 58.9353 50.7283 58.198L54.233 44.9892C57.6713 44.5318 60.8266 42.8413 63.1121 40.2321C65.3976 37.6228 66.6579 34.2725 66.6586 30.8038ZM7.10601 54.604V6.98275C19.8532 17.6754 32.9012 20.3821 38.0734 21.0491V40.5466C32.9072 41.2255 19.8622 43.9262 7.10601 54.604ZM46.113 56.9861V57.0189L42.8376 54.8363V45.0964H49.2693L46.113 56.9861ZM52.366 40.3322H42.8376V21.2754H52.366C54.8931 21.2754 57.3167 22.2793 59.1036 24.0662C60.8905 25.8531 61.8944 28.2767 61.8944 30.8038C61.8944 33.3309 60.8905 35.7545 59.1036 37.5414C57.3167 39.3283 54.8931 40.3322 52.366 40.3322Z" fill="#E8F2FD"/>
</svg>
