<svg width="51" height="64" viewBox="0 0 51 64" fill="none" xmlns="http://www.w3.org/2000/svg">
<path d="M50.556 28.7713C50.54 28.7367 50.5241 28.702 50.5055 28.67L42.4998 14.3737V4.26676C42.4998 3.13515 42.0521 2.04988 41.2551 1.24971C40.458 0.449533 39.3771 0 38.2499 0H12.7508C11.6236 0 10.5426 0.449533 9.74564 1.24971C8.94864 2.04988 8.50089 3.13515 8.50089 4.26676V14.379L0.495201 28.67C0.476608 28.702 0.460671 28.7367 0.442078 28.7713C0.09524 29.4723 -0.0520853 30.2558 0.0163419 31.0355C0.0847692 31.8152 0.366292 32.5608 0.829878 33.1901L0.859096 33.2274L23.819 63.1694C24.0175 63.4279 24.2724 63.6371 24.5642 63.7811C24.8559 63.9251 25.1766 64 25.5017 64C25.8267 64 26.1475 63.9251 26.4392 63.7811C26.7309 63.6371 26.9858 63.4279 27.1844 63.1694L50.1416 33.2274L50.1708 33.1901C50.6345 32.5608 50.9159 31.815 50.9839 31.0352C51.0519 30.2554 50.9038 29.4719 50.556 28.7713ZM38.2499 4.26676V12.8003H12.7508V4.26676H38.2499ZM25.5003 34.1341C24.8699 34.1341 24.2537 33.9464 23.7295 33.5948C23.2054 33.2432 22.7968 32.7434 22.5556 32.1586C22.3143 31.5739 22.2512 30.9305 22.3742 30.3097C22.4972 29.689 22.8008 29.1188 23.2465 28.6712C23.6923 28.2237 24.2602 27.9189 24.8785 27.7955C25.4968 27.672 26.1377 27.7353 26.7201 27.9776C27.3025 28.2198 27.8003 28.6299 28.1506 29.1562C28.5008 29.6824 28.6877 30.3011 28.6877 30.934C28.6877 31.7827 28.3519 32.5967 27.7542 33.1968C27.1564 33.797 26.3457 34.1341 25.5003 34.1341ZM27.6253 55.6013V38.0889C29.3373 37.5764 30.8083 36.4624 31.7695 34.9506C32.7306 33.4387 33.1176 31.6301 32.8597 29.8553C32.6018 28.0805 31.7162 26.4583 30.3649 25.2852C29.0136 24.112 27.2868 23.4664 25.5003 23.4664C23.7139 23.4664 21.9871 24.112 20.6358 25.2852C19.2845 26.4583 18.3989 28.0805 18.141 29.8553C17.8831 31.6301 18.2701 33.4387 19.2312 34.9506C20.1924 36.4624 21.6634 37.5764 23.3754 38.0889V55.5986L4.25102 30.6674L11.8716 17.0671H39.1318L46.7497 30.6674L27.6253 55.6013Z" fill="#E8F2FD"/>
</svg>
